<?xml version="1.0" encoding="UTF-8"?> <svg xmlns="http://www.w3.org/2000/svg" xmlns:xlink="http://www.w3.org/1999/xlink" viewBox="0 0 589.26 503.08"><defs><style>.cls-1{isolation:isolate;}.cls-2{fill:#aae6e6;}.cls-11,.cls-12,.cls-3{fill:#dcdcdc;}.cls-4{fill:#afafaf;}.cls-5{fill:#fff;}.cls-11,.cls-6{opacity:0.35;}.cls-7{fill:#c8c8c8;}.cls-8{fill:#6ecdcd;}.cls-9{fill:#8cd7d7;}.cls-10{fill:#2da0a0;}.cls-12{opacity:0.5;}.cls-13{opacity:0.26;}.cls-13,.cls-25{mix-blend-mode:multiply;}.cls-14{fill:url(#Degradado_sin_nombre_46);}.cls-15{fill:url(#Degradado_sin_nombre_46-2);}.cls-16{fill:url(#Degradado_sin_nombre_46-3);}.cls-17{opacity:0.6;}.cls-17,.cls-18{mix-blend-mode:overlay;}.cls-18{opacity:0.4;}.cls-19,.cls-25,.cls-31{fill:#f2bd99;}.cls-20,.cls-29{fill:#261f1b;}.cls-20,.cls-21,.cls-28,.cls-31{fill-rule:evenodd;}.cls-21,.cls-23{fill:#505050;}.cls-22{fill:#6e6e6e;}.cls-24{fill:#ff825a;}.cls-25{opacity:0.25;}.cls-26{fill:#e6734b;}.cls-27,.cls-28{fill:#5a5a5a;}.cls-30{fill:url(#Degradado_sin_nombre_51);}.cls-32{fill:url(#Degradado_sin_nombre_51-2);}.cls-33{fill:none;}</style><linearGradient id="Degradado_sin_nombre_46" x1="244.36" y1="231.39" x2="258.1" y2="231.39" gradientUnits="userSpaceOnUse"><stop offset="0" stop-color="#6a4abc"></stop><stop offset="0.92" stop-color="#8598c1"></stop></linearGradient><linearGradient id="Degradado_sin_nombre_46-2" x1="240.79" y1="237.55" x2="243.15" y2="237.55" xlink:href="#Degradado_sin_nombre_46"></linearGradient><linearGradient id="Degradado_sin_nombre_46-3" x1="236.93" y1="233.74" x2="241.08" y2="233.74" xlink:href="#Degradado_sin_nombre_46"></linearGradient><linearGradient id="Degradado_sin_nombre_51" x1="113.97" y1="379.5" x2="241.98" y2="379.5" gradientUnits="userSpaceOnUse"><stop offset="0.2" stop-color="#ffd584"></stop><stop offset="0.92" stop-color="#fcee21"></stop></linearGradient><linearGradient id="Degradado_sin_nombre_51-2" x1="118" y1="397.64" x2="185.89" y2="397.64" xlink:href="#Degradado_sin_nombre_51"></linearGradient></defs><title>Report Post</title><g class="cls-1"><g id="Content"><path class="cls-2" d="M309.94,45.44c-21.17,9.87-38.51,26.65-59,38A129.28,129.28,0,0,1,199,99c-27.88,2.23-58.15-4.22-82.32,10.1C93,123.14,82.93,155.41,91.1,182c4.2,13.65,12.6,26.83,10.76,41-2,15.63-15.64,26.49-25.09,39-13.25,17.53-18,39.25-15.62,60.84,1.05,9.48,4.66,17.92,4.66,27.63,0,15.52-3.23,30.91,2.06,45.92a66.23,66.23,0,0,0,26,33.34c10.69,6.95,23.18,10.62,35.67,13.16,30.77,6.26,64.21,5.87,95.22,2.83a1094.1,1094.1,0,0,1,131.91-4.9c20.14.47,40.85.31,60.44,4.76,17.84,4,40.39,1.64,57.91-3.48,43.66-12.75,55.41-59.6,40.29-99.11-5.67-14.8-15.19-29.06-14.17-44.92,1.08-16.61,13.36-29.86,20.85-44.67,18-35.48,4.63-84-28.8-104.84-9.37-5.85-20.69-10.46-25.3-20.62-3.62-8-2-17.33-3.13-26.06-2.38-18.38-17.18-33.1-33.92-40.4-20.19-8.79-44.08-3.92-62.52-14.94C350.15,35.63,328.93,36.59,309.94,45.44Z"></path><rect class="cls-3" x="118.52" y="440.38" width="357" height="9.91" rx="3.94"></rect><path class="cls-4" d="M416.3,417.34H202.78a7.74,7.74,0,0,1-7.65-7.79l-.46-277.07c0-16.13,14.19-15.93,18.4-15.93l203.23.3a7.74,7.74,0,0,1,7.65,7.78V409.55A7.75,7.75,0,0,1,416.3,417.34Z"></path><path class="cls-3" d="M408.92,428.62H210.7c-3.9,0-7.1-3.55-7.1-7.89l-18.9-281.5c0-4.34-2.41-15.33,13.37-15.33H408.92c3.9,0,7.1,3.56,7.1,7.9V420.73C416,425.07,412.82,428.62,408.92,428.62Z"></path><rect class="cls-5" x="178.49" y="129.75" width="228.82" height="310.96" rx="6.96"></rect><g class="cls-6"><rect class="cls-7" x="303.93" y="222.96" width="85.19" height="9.52" rx="1.38"></rect><rect class="cls-7" x="303.93" y="238.04" width="85.19" height="9.52" rx="1.38"></rect></g><g class="cls-6"><rect class="cls-7" x="203.29" y="307.73" width="85.19" height="10.05" rx="1.41"></rect><rect class="cls-7" x="203.29" y="324.64" width="85.19" height="10.05" rx="1.41"></rect><rect class="cls-7" x="203.29" y="375.38" width="85.19" height="10.05" rx="1.41"></rect><rect class="cls-7" x="203.29" y="392.29" width="85.19" height="10.05" rx="1.41"></rect></g><rect class="cls-8" x="202.85" y="221.93" width="86.46" height="79.84" rx="2.95"></rect><rect class="cls-9" x="202.85" y="343.31" width="86.46" height="25.28" rx="1.66"></rect><rect class="cls-10" x="303.25" y="260.42" width="86.62" height="142.76" rx="1.37"></rect><path class="cls-11" d="M386.7,210v-.68a2.17,2.17,0,0,0-2.16-2.17H205a2.17,2.17,0,0,0-2.16,2.17V210a2.16,2.16,0,0,0,2.16,2.16H384.54A2.16,2.16,0,0,0,386.7,210Zm0-56.73v-.68a2.16,2.16,0,0,0-2.16-2.16H205a2.16,2.16,0,0,0-2.16,2.16v.68A2.16,2.16,0,0,0,205,155.4H384.54A2.16,2.16,0,0,0,386.7,153.24Z"></path><rect class="cls-12" x="202.85" y="163.4" width="183.85" height="35.69" rx="4.62"></rect><g class="cls-13"><path class="cls-14" d="M249.62,236.65a5.24,5.24,0,0,0,4-1.9c.11,0,.21,0,.32,0a4.15,4.15,0,1,0,0-8.3,4,4,0,0,0-1.7.38,5.13,5.13,0,0,0-2.63-.74,5.27,5.27,0,0,0,0,10.53Z"></path><path class="cls-15" d="M242,238.73a1.18,1.18,0,1,0-1.18-1.18A1.18,1.18,0,0,0,242,238.73Z"></path><path class="cls-16" d="M239,235.81a2.08,2.08,0,1,0-2.07-2.07A2.08,2.08,0,0,0,239,235.81Z"></path></g><path class="cls-9" d="M395.84,398.94s59.44-2,84.91-16.57c3.53-2,7.05-4.27,9.55-7.48,3.27-4.18,4.17-11,.1-14.37s-10.13-1.59-15.13-3.11c6.58-2.05,13.22-4.39,18.75-8.51s9.88-10.36,10.18-17.25a7,7,0,0,0-.58-3.55c-1.51-2.9-5.65-3.14-8.73-2.06s-5.9,3.1-9.15,3.4c7.37-4.15,12.7-11.38,15.74-19.28s4-16.46,4-24.93c.07-7.59-.31-15.83,4.14-22-11.84,6-25.74,7-37.56,13.08A49.22,49.22,0,0,0,447,308.49c-.56-4.83-1.79-10.55-6.33-12.3-4.36-1.68-9.07,1.49-12.11,5-8.43,9.85-11.19,23.29-12.52,36.19-1.26-4.53-3.48-9.91-8.15-10.41-4.25-.45-7.55,3.62-9.37,7.49C393.67,344.73,395.84,398.94,395.84,398.94Z"></path><g class="cls-17"><path class="cls-5" d="M395.93,399.2a85.13,85.13,0,0,0,11-3.2l1.34-.23c6.19-1.09,12.32-2.32,18.43-3.67s12.21-2.79,18.26-4.38,12.08-3.33,18-5.32c1.5-.45,3-1,4.45-1.53s2.95-1.05,4.4-1.63,2.93-1.1,4.37-1.72l4.3-1.89c-5.89,2.13-11.85,4-17.86,5.64s-12.06,3.2-18.13,4.65-12.16,2.78-18.26,4.1q-5.07,1.07-10.16,2.08a99.44,99.44,0,0,0,17-10.58c.25-.18.49-.38.74-.57,2.57-.73,5.13-1.48,7.68-2.27,4.05-1.26,8.09-2.55,12.11-3.93s8-2.81,12-4.31,7.9-3.1,11.78-4.82c-4.05,1.28-8.06,2.64-12.12,3.86s-8.09,2.49-12.14,3.7l-12.19,3.57-3,.84a115.78,115.78,0,0,0,10.42-10.12,91.5,91.5,0,0,0,6.08-7.54c.88-.61,1.79-1.19,2.7-1.75,4-2.44,8.12-4.74,12.25-7s8.34-4.37,12.59-6.44,8.49-4.17,12.5-6.69c-4.24,2.1-8.57,3.95-12.93,5.76s-8.68,3.78-12.92,5.89c-3.83,1.89-7.59,3.9-11.31,6,1.12-1.72,2.2-3.45,3.23-5.21s2.08-3.66,3.06-5.52c1.6-1.69,3.31-3.35,5-5,2.68-2.55,5.4-5.05,8.13-7.54l16.44-15c-3.05,2.12-6,4.39-8.94,6.64s-5.81,4.62-8.66,7-5.65,4.82-8.4,7.34l-.68.65c2.63-5.6,4.93-11.32,7-17.09l4.36-6.39q2.66-3.9,5.6-7.57c2-2.43,4.07-4.78,6.26-7.06s4.42-4.51,6.64-6.78c-2.55,1.88-5,3.92-7.41,6a81.58,81.58,0,0,0-6.81,6.73,92.68,92.68,0,0,0-6,7.47c.2-.56.39-1.13.58-1.7,2.16-6.43,4.31-12.85,7.4-18.81l.18-.35.28.06.07-.7A38.53,38.53,0,0,1,497,278.79a.28.28,0,0,0,.09-.37.27.27,0,0,0-.37-.1,33.88,33.88,0,0,0-8,6.46,43.64,43.64,0,0,0-3.83,4.85c0-.08,0-.17,0-.25a27.73,27.73,0,0,0-.34-4.27,21.34,21.34,0,0,0-1.12-4.11,12.91,12.91,0,0,0-2.1-3.64,12.6,12.6,0,0,1,1.58,3.81,19.16,19.16,0,0,1,.55,4.05,25,25,0,0,1-.2,4.06c-.08.67-.22,1.34-.33,2l-.46,2,.09,0a130.33,130.33,0,0,0-8.43,18.55c-.58,1.5-1.15,3-1.74,4.48-.05-.77-.11-1.53-.17-2.29-.25-3-.55-5.92-1-8.85a81,81,0,0,0-1.83-8.73,61.2,61.2,0,0,0-2.95-8.38c.77,2.85,1.47,5.71,1.95,8.61s.89,5.8,1.19,8.71.51,5.84.65,8.77c.11,2.3.2,4.59.28,6.9a187.84,187.84,0,0,1-9.65,20.24c-.1-1.29-.21-2.58-.35-3.87-.32-3.26-.72-6.51-1.24-9.74s-1.1-6.44-1.79-9.64-1.47-6.36-2.4-9.49c.48,3.23,1,6.44,1.41,9.67s.82,6.45,1.17,9.67.63,6.46.86,9.7q.24,3.5.42,7c-.73,1.2-1.47,2.4-2.23,3.58A96.83,96.83,0,0,1,448,359.77a68.73,68.73,0,0,0-.15-8.62c-.45-5.14-1.09-10.22-1.94-15.29s-1.88-10.09-3.11-15.06-2.67-9.9-4.34-14.74c1.19,5,2.35,9.95,3.27,15s1.79,10,2.47,15.09,1.24,10.12,1.57,15.18a59.26,59.26,0,0,1-.15,11.07c-.42.44-.83.88-1.26,1.31-4.34,4.45-8.82,8.74-13.5,12.79a89.48,89.48,0,0,0,.6-9.38,125.94,125.94,0,0,0-.75-14.29c-.51-4.74-1.25-9.44-2.15-14.1s-2-9.29-3.28-13.85c.79,4.67,1.59,9.34,2.18,14s1.15,9.38,1.5,14.08.53,9.4.41,14.09a86.64,86.64,0,0,1-1,11.52,141.54,141.54,0,0,1-14.69,10.64c-1.2.72-2.4,1.44-3.61,2.15a86.24,86.24,0,0,0,1.55-10,119.18,119.18,0,0,0,.52-13.75c-.08-4.58-.34-9.16-.8-13.71s-1-9.08-1.82-13.57c.38,4.54.73,9.09.91,13.64s.28,9.09.18,13.63-.37,9.07-.89,13.56a86.87,86.87,0,0,1-2.17,11.6c-.87.48-1.73,1-2.61,1.41-3,1.57-6,3-9.14,4.48a.27.27,0,0,0-.15.3A.28.28,0,0,0,395.93,399.2Z"></path><path class="cls-5" d="M403.49,354.75a18.93,18.93,0,0,0,1,4.26,27.22,27.22,0,0,0,.71-4.29c.12-1.42.21-2.83.23-4.24s0-2.81-.06-4.22-.14-2.81-.25-4.3a12.67,12.67,0,0,0-1.43,4.17,24.14,24.14,0,0,0-.44,4.31A28.25,28.25,0,0,0,403.49,354.75Z"></path><path class="cls-5" d="M402.45,355.59a39.72,39.72,0,0,0-.59-4,22,22,0,0,0-1.14-4,19.15,19.15,0,0,0-.55,4.15,31.34,31.34,0,0,0,.78,8.19,18.92,18.92,0,0,0,1.33,4,22.78,22.78,0,0,0,.36-4.16A39.85,39.85,0,0,0,402.45,355.59Z"></path><path class="cls-5" d="M430.72,315.5a10.23,10.23,0,0,0,1.36,3.39,32.08,32.08,0,0,0,.34-3.53c.06-1.15.11-2.27.14-3.39l.07-3.39c0-1.15,0-2.31-.12-3.55a10.54,10.54,0,0,0-1.57,3.3,14.85,14.85,0,0,0-.56,3.57A14.05,14.05,0,0,0,430.72,315.5Z"></path><path class="cls-5" d="M428.47,316.32c-.08-1.14-.17-2.28-.28-3.43a31.53,31.53,0,0,0-.5-3.57,11.13,11.13,0,0,0-1.2,3.49,16,16,0,0,0-.2,3.65,15.67,15.67,0,0,0,.66,3.59,11.22,11.22,0,0,0,1.63,3.31,31.25,31.25,0,0,0,.06-3.6C428.6,318.6,428.54,317.46,428.47,316.32Z"></path></g><path class="cls-8" d="M436.42,391.73c4.62-4.14,7.63-11.74,6.16-19.54,5.29-1,8.4-4.6,12.51-7.65,6.18-4.61,13.47-7.35,20.48-10.93.83-.38,4.95-2.42,4.94-2.45s5.78,7.55,4.91,17.25c4.55-9.73,3.34-19.93-.63-24.66,5.17-6.07,7.5-9.31,13.82-14.21,6.16-4.93,14-8.62,18.43-16.43A20.14,20.14,0,0,1,524,327.46c1.41-7.81-.21-15.35-3.91-20.55,2.59-3.85,5-8,8.07-11.42s7-6.06,10.62-5.32c3.31.68,5.87,4.32,7,8.86s.93,9.81.26,15a86.12,86.12,0,0,1-9.49,30.49c-4.82-1.49-15,4.59-21,5.75,4.73,1.68,16.48,2.23,16.51,2.12s-1.84,4.44-2.24,5.2a62.63,62.63,0,0,1-24.28,26.18c-6.29,3.69-13,6.1-19.22,9.73-11,6.36-19.69,16.19-32.63,20.84a38.76,38.76,0,0,1-4.85,1.36c-.43.38-19.8-12.45-21.86-16.76,1.15,4.45,6.28,14.05,9.7,17.77-11-1.53-23.54-6.36-31.29-11.85-3.63-2.52-6.47-5.66-10.15-8.14-3.41-2.31-4.82-1.88-2.45-4.72,4.31-5,14.23-9.39,20.08-12.81,1.52-.83,5.92-3.54,11.47-6.1,2.54-1.07,9.09-3.68,9.06-3.73C433.07,369.36,439.39,371.79,436.42,391.73Z"></path><g class="cls-18"><path class="cls-5" d="M521.32,341.27c1.89-1,3.77-2,5.67-3,3.8-1.95,7.61-3.9,11.41-5.76-3.81,1.54-7.64,3.21-11.48,4.91-1.92.83-3.84,1.73-5.76,2.62-1.06.49-2.12,1-3.18,1.53.43-.62.86-1.24,1.28-1.87q2.73-4.17,5.15-8.56,4.47-4.09,9-8.3c3.14-2.92,6.26-5.93,9.42-8.87-3.25,2.66-6.47,5.42-9.72,8.12-2.3,1.92-4.6,3.81-6.9,5.71a127.16,127.16,0,0,0,5.34-11.88v0q2.85-3.39,5.8-6.74c2-2.22,3.94-4.45,6-6.6-2.14,1.87-4.24,3.86-6.33,5.86-1.41,1.35-2.8,2.73-4.19,4.11a129.81,129.81,0,0,0,5.31-19.52l-.34-.07a127.87,127.87,0,0,1-5.86,19.4,48.22,48.22,0,0,0-.95-5.79,42.53,42.53,0,0,0-2.53-7.74,45.14,45.14,0,0,1,1.82,8.11,50.76,50.76,0,0,1,.41,8.49,123.14,123.14,0,0,1-5.73,11.84c0-.82.06-1.64.05-2.45a45.59,45.59,0,0,0-.42-5.79,41.09,41.09,0,0,0-1.14-5.45,29.29,29.29,0,0,0-1.84-5,31.08,31.08,0,0,1,1.49,5.19,41.66,41.66,0,0,1,.75,5.55,44.69,44.69,0,0,1,0,5.79,46.59,46.59,0,0,1-.56,5.06q-2.57,4.37-5.44,8.5c-.4.58-.81,1.15-1.22,1.72.08-1.09.12-2.17.11-3.24a45.64,45.64,0,0,0-.43-6,48.2,48.2,0,0,0-2.84-11,49,49,0,0,1,2.08,11.33,46.92,46.92,0,0,1,0,6.05,43.09,43.09,0,0,1-.65,5.24q-3.76,5-8,9.57a40.19,40.19,0,0,0-1-9,49.91,49.91,0,0,0-3.42-9.93,49.14,49.14,0,0,1,2.65,10.27,39.16,39.16,0,0,1,.2,10.34q-4.32,4.51-9,8.57a41.29,41.29,0,0,0-.9-9.07,55.58,55.58,0,0,0-3.24-10.34,55.32,55.32,0,0,1,2.46,10.64,41.29,41.29,0,0,1,.08,10.13,129.22,129.22,0,0,1-11,8.15l-1,.66a37.49,37.49,0,0,0,.52-7.62,49.5,49.5,0,0,0-1.2-9.28,49.28,49.28,0,0,1,.38,9.44,37.12,37.12,0,0,1-1.49,8.6,125,125,0,0,1-11.8,6.46,36.36,36.36,0,0,0,.75-6.94,51.19,51.19,0,0,0-.62-8.54,50.08,50.08,0,0,1-.22,8.64,35.28,35.28,0,0,1-1.72,7.7c-1.48.68-3,1.35-4.5,2q-4.76,2-9.65,3.6a40.57,40.57,0,0,0,2.14-8,55.26,55.26,0,0,0,.7-10,53.69,53.69,0,0,1-1.54,10,38.71,38.71,0,0,1-3.25,8.63c-3.62,1.15-7.29,2.17-11,3s-7.81,1.66-11.8,2.2c-1.23.18-2.47.33-3.71.47l0-.15a36.63,36.63,0,0,1,2.13-6.31c.91-2.08,2-4.12,3.13-6.19a30.85,30.85,0,0,0-4.42,5.84,25.63,25.63,0,0,0-2.69,6.49c0,.18-.08.35-.11.52-2.14.21-4.3.37-6.46.49q-3.84.18-7.72.16c.12-.17.22-.33.35-.49a36.13,36.13,0,0,1,6.11-6.28c2.32-1.95,4.79-3.8,7.21-5.72a67.06,67.06,0,0,0-8.21,5,30.94,30.94,0,0,0-6.81,6.37c-.23.29-.44.6-.64.91a1.64,1.64,0,0,1-.14.22q-7.47-.15-15.1-1.07c0,.12-.05.23-.07.34a109.18,109.18,0,0,0,15,2.51h0c.15.2.26.31.39.47s.51.59.79.87a27.77,27.77,0,0,0,3.64,3.23,31.76,31.76,0,0,0,9.4,4.78,43.66,43.66,0,0,1-8.21-5.49,32.15,32.15,0,0,1-3.27-3.22l-.4-.45c2.57.19,5.14.31,7.7.33,2.34,0,4.68,0,7-.15l.15.22a24.2,24.2,0,0,0,2.2,2.83,21,21,0,0,0,6.07,4.71,37.06,37.06,0,0,1-4.73-5.31c-.6-.84-1.18-1.7-1.7-2.57,1.14-.08,2.28-.17,3.41-.27,2.84-.29,5.67-.68,8.47-1.16,1.11,1,2.22,2.06,3.38,3.07,1.47,1.24,2.95,2.47,4.53,3.64s3.17,2.32,4.83,3.42,3.38,2.15,5.2,3.13c-1.45-1.24-2.94-2.45-4.4-3.69s-2.93-2.46-4.38-3.7-2.9-2.48-4.29-3.76c-.93-.82-1.83-1.66-2.73-2.5l1.58-.3a112.68,112.68,0,0,0,11.78-3.1c2.79,1.26,5.48,2.68,8.12,4.13,3.17,1.77,6.3,3.56,9.36,5.43-2.79-2.08-5.7-4.09-8.66-6.06-2.2-1.44-4.43-2.86-6.81-4.18q4.81-1.65,9.45-3.71c1.71-.76,3.4-1.57,5.07-2.41,2.4.75,4.73,1.64,7,2.57,2.82,1.17,5.62,2.38,8.36,3.67-2.5-1.53-5.1-3-7.75-4.37-1.89-1-3.81-1.93-5.84-2.79a128,128,0,0,0,11.43-6.71c3.07.26,6.09.73,9.07,1.26,3.34.61,6.66,1.27,9.93,2-3.08-1-6.25-2-9.46-2.82-2.49-.65-5-1.26-7.65-1.73l.95-.65A127.11,127.11,0,0,0,496,366.12c3.67-.07,7.31.13,10.92.38,3.84.3,7.67.62,11.45,1.05-3.63-.73-7.33-1.34-11.06-1.91-3.13-.44-6.3-.84-9.58-1q4.63-4.14,8.87-8.72c3.76-.92,7.55-1.56,11.33-2.14s7.66-1.08,11.46-1.5c-3.7.09-7.46.32-11.25.61-3.23.26-6.49.59-9.82,1.13,2.78-3.13,5.41-6.41,7.88-9.81C517.86,343.19,519.58,342.2,521.32,341.27Z"></path><path class="cls-5" d="M476.81,391c-.65-.2-1.32-.39-2-.56a16.67,16.67,0,0,0-2.25-.43,3.61,3.61,0,0,0,1.23,1.53,6.25,6.25,0,0,0,1.9.94,8.18,8.18,0,0,0,2.33.38,8.31,8.31,0,0,0,2.67-.36,13,13,0,0,0-1.93-.85C478.11,391.36,477.46,391.15,476.81,391Z"></path><path class="cls-5" d="M473.51,392.88l-2.2-1c-.76-.34-1.5-.7-2.37-1a4.61,4.61,0,0,0,1.2,2,7.39,7.39,0,0,0,2.05,1.41,9.1,9.1,0,0,0,2.65.79A9.79,9.79,0,0,0,478,395a23.68,23.68,0,0,0-2.26-1.12Z"></path></g><polygon class="cls-5" points="123.64 225.22 126.93 227.02 123.64 228.81 121.85 232.1 120.05 228.81 116.77 227.02 120.05 225.22 121.85 221.94 123.64 225.22"></polygon><polygon class="cls-5" points="132.47 123.95 135.76 125.75 132.47 127.54 130.68 130.83 128.88 127.54 125.59 125.75 128.88 123.95 130.68 120.67 132.47 123.95"></polygon><polygon class="cls-5" points="277.5 94.07 280.79 95.87 277.5 97.67 275.71 100.95 273.91 97.67 270.63 95.87 273.91 94.07 275.71 90.79 277.5 94.07"></polygon><polygon class="cls-5" points="426.11 95.67 429.4 97.46 426.11 99.26 424.32 102.55 422.52 99.26 419.23 97.46 422.52 95.67 424.32 92.38 426.11 95.67"></polygon><polygon class="cls-5" points="498.24 196.07 501.52 197.87 498.24 199.67 496.44 202.95 494.64 199.67 491.36 197.87 494.64 196.07 496.44 192.79 498.24 196.07"></polygon><path class="cls-9" d="M179.91,418.8S116.29,401,92.68,378.46c-3.28-3.12-6.47-6.47-8.33-10.59-2.41-5.38-1.59-12.95,3.7-15.54s11.35,1,17.15.65c-6.57-4-13.11-8.23-18-14.15s-7.91-13.78-6.42-21.3a7.91,7.91,0,0,1,1.57-3.67c2.39-2.73,6.93-1.9,10,.09s5.54,4.9,9,6.08c-6.86-6.43-10.7-15.64-11.89-25s.08-18.82,2.23-28c1.92-8.21,4.52-17,1.34-24.81,11.19,9.62,25.91,14.39,37.07,24a54.66,54.66,0,0,1,18.6,41.35c1.89-5.06,4.73-10.92,10.09-11.6,5.14-.66,9.39,4,11.73,8.63,6.5,12.86,5.92,28.08,3.94,42.35,2.56-4.54,6.37-9.77,11.54-9.07,4.71.65,7.2,5.9,8.14,10.56C196.59,360.88,179.91,418.8,179.91,418.8Z"></path><g class="cls-17"><path class="cls-5" d="M179.75,419.05a92.3,92.3,0,0,1-11-6.36l-1.39-.61c-6.38-2.8-12.66-5.75-18.91-8.83S136,397,129.89,393.69s-12.15-6.78-18-10.49c-1.49-.89-2.93-1.88-4.39-2.83s-2.9-1.91-4.32-2.92-2.87-2-4.26-3l-4.13-3.17c5.78,3.85,11.73,7.41,17.77,10.81s12.17,6.64,18.33,9.81,12.39,6.22,18.62,9.25q5.19,2.49,10.41,4.93a111.7,111.7,0,0,1-15.53-15.9c-.22-.27-.43-.55-.64-.82-2.58-1.47-5.15-2.95-7.69-4.48-4-2.43-8.06-4.89-12-7.44s-7.9-5.15-11.78-7.83-7.7-5.43-11.44-8.3c4,2.44,8,5,12,7.36s8.07,4.83,12.13,7.21l12.2,7.07,3,1.7A127.64,127.64,0,0,1,131.58,371,101.71,101.71,0,0,1,127,361.2c-.8-.88-1.62-1.75-2.46-2.6-3.67-3.68-7.51-7.26-11.37-10.77s-7.84-6.92-11.87-10.27S93.25,330.81,89.6,327c4,3.39,8.19,6.53,12.42,9.64s8.37,6.37,12.38,9.77c3.64,3.05,7.16,6.22,10.62,9.49q-1.14-3.21-2.12-6.47c-.67-2.24-1.27-4.5-1.83-6.76-1.29-2.25-2.69-4.49-4.1-6.69-2.22-3.45-4.5-6.87-6.78-10.28L96.42,305.22c2.73,3.09,5.29,6.32,7.89,9.53s5,6.53,7.48,9.85,4.82,6.7,7.12,10.14c.2.29.38.59.57.88-1.36-6.73-2.33-13.51-3.07-20.29l-3-8.05q-1.83-4.92-4-9.65c-1.49-3.15-3.13-6.23-4.88-9.27s-3.59-6-5.38-9.08c2.25,2.71,4.35,5.55,6.41,8.43a92,92,0,0,1,5.57,9.06,101.54,101.54,0,0,1,4.47,9.65c-.06-.67-.12-1.33-.17-2-.63-7.51-1.25-15-3-22.25,0-.14-.07-.28-.11-.42h-.31l.11-.77c-1.77-6.8-4.72-13.37-9.55-18.58a.3.3,0,0,1,.43-.43,38,38,0,0,1,6.93,9.09,48,48,0,0,1,2.85,6.24,2,2,0,0,1,.06-.26,28.63,28.63,0,0,1,1.5-4.53,23.2,23.2,0,0,1,2.29-4.14,14.37,14.37,0,0,1,3.23-3.37,14.38,14.38,0,0,0-2.72,3.69,22.55,22.55,0,0,0-1.67,4.23,28.05,28.05,0,0,0-.85,4.44c-.09.74-.11,1.5-.17,2.25l0,2.25h-.1c2.15,7.3,3.2,14.82,4.19,22.25.22,1.77.45,3.53.69,5.29.26-.81.52-1.62.79-2.43,1-3.12,2.16-6.23,3.45-9.27a87.14,87.14,0,0,1,4.29-8.93,66.33,66.33,0,0,1,5.4-8.27,94.47,94.47,0,0,0-4.38,8.78c-1.33,3-2.5,6-3.6,9.08s-2.09,6.17-3,9.29Q121,311.3,119.94,315A209.45,209.45,0,0,0,125,339.4c.45-1.37.91-2.74,1.39-4.1,1.21-3.42,2.51-6.82,3.92-10.17s2.89-6.66,4.48-9.92,3.27-6.48,5.1-9.61c-1.37,3.35-2.79,6.68-4.08,10s-2.59,6.75-3.82,10.14-2.39,6.8-3.5,10.23c-.78,2.47-1.55,5-2.29,7.45.46,1.49.94,3,1.45,4.46a106.37,106.37,0,0,0,6.4,14.81,77.6,77.6,0,0,1,2.44-9.25c1.84-5.43,3.88-10.74,6.13-16s4.71-10.39,7.35-15.43,5.49-10,8.58-14.75c-2.6,5.05-5.17,10.11-7.49,15.28s-4.59,10.36-6.66,15.63-4,10.59-5.7,16a65.17,65.17,0,0,0-2.77,12c.33.59.67,1.17,1,1.75,3.5,5.95,7.2,11.76,11.18,17.37A101,101,0,0,1,150,375a140.37,140.37,0,0,1,4.59-15.22c1.8-5,3.84-9.85,6-14.64s4.6-9.5,7.19-14.08c-2.08,4.84-4.18,9.65-6.06,14.56s-3.72,9.81-5.34,14.79-3.06,10-4.16,15.1a96.31,96.31,0,0,0-2,12.7,157.26,157.26,0,0,0,13,15.36q1.65,1.65,3.33,3.27a94.39,94.39,0,0,1,1-11.15,133.46,133.46,0,0,1,3.07-15c1.3-4.92,2.79-9.79,4.5-14.57s3.51-9.53,5.54-14.17c-1.6,4.81-3.19,9.62-4.58,14.48s-2.71,9.74-3.8,14.66-2,9.88-2.63,14.86a95.88,95.88,0,0,0-.72,13.1c.8.74,1.61,1.48,2.44,2.21,2.81,2.48,5.72,4.86,8.67,7.24a.31.31,0,0,1,.09.37A.31.31,0,0,1,179.75,419.05Z"></path><path class="cls-5" d="M183.35,369.09a20.77,20.77,0,0,1-2.2,4.33,29.2,29.2,0,0,1,.37-4.81c.24-1.56.52-3.11.87-4.63s.76-3,1.18-4.55.89-3,1.41-4.56a14.12,14.12,0,0,1,.44,4.87,27.13,27.13,0,0,1-.67,4.77A30.63,30.63,0,0,1,183.35,369.09Z"></path><path class="cls-5" d="M184.24,370.28c.5-1.43,1.07-2.83,1.71-4.21a25.45,25.45,0,0,1,2.29-4,20.79,20.79,0,0,1-.5,4.63,34.91,34.91,0,0,1-3,8.63,21.23,21.23,0,0,1-2.48,3.93,24.44,24.44,0,0,1,.71-4.58C183.32,373.16,183.74,371.7,184.24,370.28Z"></path><path class="cls-5" d="M164.35,319.55a11.54,11.54,0,0,1-2.37,3.29,37.26,37.26,0,0,1,.57-3.9c.23-1.25.48-2.47.75-3.7l.82-3.67a38.48,38.48,0,0,1,1.07-3.8,11.73,11.73,0,0,1,.82,4,16.36,16.36,0,0,1-.35,4A16.13,16.13,0,0,1,164.35,319.55Z"></path><path class="cls-5" d="M166.56,321c.38-1.21.78-2.41,1.2-3.63a35,35,0,0,1,1.49-3.71,12,12,0,0,1,.37,4.08,17.56,17.56,0,0,1-.75,4,17.31,17.31,0,0,1-1.66,3.7,11.92,11.92,0,0,1-2.64,3.13,33.6,33.6,0,0,1,.9-3.89C165.81,323.45,166.18,322.23,166.56,321Z"></path></g><path class="cls-8" d="M158.27,394.54c-4.88-4.87-7.75-13.49-5.65-22.05-5.81-1.41-9-5.61-13.41-9.24-6.58-5.48-14.5-9-22.07-13.36-.89-.47-5.34-3-5.33-3s-6.86,8-6.49,18.84c-4.46-11.07-2.49-22.3,2.19-27.32-5.36-7-7.76-10.78-14.47-16.59C86.5,316,78,311.39,73.59,302.46A22.36,22.36,0,0,0,65.05,318c-1.1-8.75,1.16-17,5.58-22.56-2.64-4.43-5.09-9.18-8.27-13.15S55,275.11,50.9,275.71c-3.71.55-6.77,4.43-8.27,9.41S41,295.94,41.45,301.68c1,12.81,3.28,22.38,8.68,34.4,5.44-1.36,16.39,6,22.89,7.64-5.35,1.58-18.4,1.48-18.44,1.35s1.78,5,2.18,5.91a69.59,69.59,0,0,0,25.35,30.5c6.76,4.47,14,7.55,20.73,12,11.82,7.71,20.86,19.14,34.93,25.08a43.85,43.85,0,0,0,5.31,1.8c.45.45,22.71-12.61,25.25-17.27-1.54,4.86-7.81,15.2-11.83,19.13,12.24-1.05,26.5-5.64,35.43-11.27,4.17-2.56,7.52-5.88,11.75-8.4,3.91-2.37,5.45-1.8,3-5.09-4.49-5.77-15.22-11.28-21.51-15.42-1.63-1-6.35-4.29-12.35-7.47-2.76-1.34-9.86-4.62-9.82-4.68C163.33,369.93,156.18,372.23,158.27,394.54Z"></path><g class="cls-18"><path class="cls-5" d="M67.14,333.44c-2-1.23-4.06-2.47-6.11-3.65-4.09-2.4-8.2-4.79-12.31-7.08,4.14,1.94,8.29,4,12.44,6.13,2.08,1,4.16,2.15,6.24,3.25,1.14.61,2.29,1.25,3.43,1.9-.44-.72-.88-1.43-1.31-2.16q-2.77-4.77-5.19-9.8-4.71-4.8-9.45-9.75c-3.31-3.43-6.59-7-9.91-10.4,3.43,3.14,6.85,6.4,10.29,9.59,2.43,2.26,4.87,4.5,7.3,6.75a140.5,140.5,0,0,1-5.2-13.5l0,0q-2.94-3.93-6-7.82c-2-2.59-4.1-5.19-6.22-7.68,2.25,2.19,4.46,4.53,6.66,6.88,1.48,1.58,3,3.19,4.41,4.81a142.62,142.62,0,0,1-4.71-22l.38-.07a141.35,141.35,0,0,0,5.32,21.87,53.07,53.07,0,0,1,1.41-6.36A46.75,46.75,0,0,1,61.84,286a49.69,49.69,0,0,0-2.51,8.88,55.75,55.75,0,0,0-1,9.39A138.57,138.57,0,0,0,64,317.73c0-.92,0-1.83.1-2.73a47.27,47.27,0,0,1,.82-6.39,45.18,45.18,0,0,1,1.58-6,35.27,35.27,0,0,1,2.34-5.42,35.63,35.63,0,0,0-2,5.66A48.32,48.32,0,0,0,65.71,309a52.05,52.05,0,0,0-.38,6.41,51.37,51.37,0,0,0,.32,5.65q2.58,5,5.51,9.76c.41.67.84,1.32,1.26,2,0-1.22,0-2.42.07-3.6a52.91,52.91,0,0,1,.84-6.66,54.12,54.12,0,0,1,3.82-12.08,55,55,0,0,0-3,12.45,52.78,52.78,0,0,0-.39,6.7,48.65,48.65,0,0,0,.41,5.86q3.87,5.78,8.26,11.09a44.15,44.15,0,0,1,1.69-9.9,54.47,54.47,0,0,1,4.39-10.82A54.39,54.39,0,0,0,85,337.07a43.3,43.3,0,0,0-.85,11.46q4.52,5.27,9.51,10.05a45.6,45.6,0,0,1,1.55-10,62.08,62.08,0,0,1,4.22-11.28A60.5,60.5,0,0,0,96,349a44.86,44.86,0,0,0-.7,11.23,138.23,138.23,0,0,0,11.67,9.7l1.1.8a41.6,41.6,0,0,1-.11-8.48A54,54,0,0,1,109.86,352a54.38,54.38,0,0,0-1,10.45,41,41,0,0,0,1.13,9.62,139.59,139.59,0,0,0,12.69,7.88,39.94,39.94,0,0,1-.4-7.75,56.29,56.29,0,0,1,1.2-9.43,55.7,55.7,0,0,0-.28,9.6,38.91,38.91,0,0,0,1.44,8.64c1.61.85,3.23,1.68,4.87,2.47q5.16,2.48,10.5,4.57a44.31,44.31,0,0,1-1.9-9,61.58,61.58,0,0,1-.17-11.18,59.64,59.64,0,0,0,1.1,11.21,43.41,43.41,0,0,0,3.09,9.77q5.91,2.25,12,4c4.24,1.26,8.57,2.31,13,3.15,1.35.28,2.72.52,4.09.75l0-.17a42.33,42.33,0,0,0-2-7.13c-.89-2.36-2-4.69-3.1-7.05a34.4,34.4,0,0,1,4.55,6.74,28.35,28.35,0,0,1,2.59,7.36l.09.59c2.37.36,4.75.66,7.14.92,2.83.3,5.68.51,8.55.65-.12-.19-.22-.38-.35-.56a40.51,40.51,0,0,0-6.41-7.34c-2.45-2.3-5.08-4.51-7.64-6.77a72,72,0,0,1,8.79,6,34.47,34.47,0,0,1,7.18,7.47c.24.35.45.7.65,1.06a2,2,0,0,0,.14.25q8.29.29,16.82-.28l.06.38a119.71,119.71,0,0,1-16.77,1.88v0c-.18.2-.31.33-.47.49-.29.31-.59.62-.92.92a31,31,0,0,1-4.24,3.36,35,35,0,0,1-10.71,4.73,48.28,48.28,0,0,0,9.44-5.59,36.76,36.76,0,0,0,3.82-3.37l.47-.48c-2.87.06-5.72,0-8.56-.09-2.6-.11-5.19-.32-7.76-.6-.06.08-.11.17-.17.24a27.27,27.27,0,0,1-2.62,3,23.46,23.46,0,0,1-7,4.86,40.94,40.94,0,0,0,5.57-5.61c.71-.9,1.41-1.81,2-2.75q-1.89-.23-3.78-.51c-3.13-.49-6.24-1.09-9.31-1.79-1.3,1.08-2.6,2.15-3.94,3.2-1.71,1.28-3.43,2.56-5.24,3.77s-3.66,2.37-5.57,3.5-3.89,2.18-6,3.16c1.68-1.3,3.41-2.55,5.1-3.83s3.4-2.55,5.09-3.84,3.36-2.58,5-3.92c1.08-.85,2.12-1.73,3.17-2.6l-1.73-.43a124.85,124.85,0,0,1-12.89-4.15c-3.16,1.23-6.23,2.64-9.25,4.09-3.62,1.77-7.21,3.57-10.71,5.46,3.22-2.14,6.57-4.19,10-6.2,2.53-1.47,5.09-2.91,7.8-4.23-3.48-1.41-6.91-3-10.25-4.68-1.85-1-3.68-2-5.48-3-2.7.68-5.34,1.53-8,2.43-3.2,1.12-6.38,2.3-9.49,3.56,2.86-1.54,5.83-3,8.85-4.38,2.16-1,4.35-1.91,6.65-2.74a143.32,143.32,0,0,1-12.28-8.13c-3.41.1-6.79.44-10.13.84-3.74.48-7.47,1-11.13,1.65,3.48-1,7-1.79,10.66-2.56,2.8-.57,5.64-1.1,8.59-1.45l-1-.78a145.21,145.21,0,0,1-11.36-9.83c-4.06-.3-8.11-.3-12.13-.24-4.28.1-8.55.23-12.76.47,4.06-.59,8.2-1,12.38-1.44,3.5-.31,7-.56,10.68-.58q-4.89-4.86-9.3-10.2c-4.12-1.25-8.29-2.19-12.45-3.05s-8.43-1.67-12.62-2.36c4.11.32,8.26.81,12.45,1.35,3.56.48,7.16,1.05,10.82,1.84Q76.51,342.89,72.7,337C70.87,335.78,69,334.58,67.14,333.44Z"></path><path class="cls-5" d="M113.52,391.24c.73-.19,1.48-.36,2.26-.51a19.72,19.72,0,0,1,2.52-.34,4,4,0,0,1-1.46,1.63,7,7,0,0,1-2.15.93,9.56,9.56,0,0,1-2.61.27,9.15,9.15,0,0,1-2.94-.55,13.88,13.88,0,0,1,2.18-.83C112.05,391.61,112.78,391.42,113.52,391.24Z"></path><path class="cls-5" d="M117.06,393.57c.84-.32,1.68-.66,2.51-1s1.7-.68,2.69-1a5,5,0,0,1-1.46,2.16,8,8,0,0,1-2.36,1.45,10.65,10.65,0,0,1-3,.71,11.07,11.07,0,0,1-3.48-.25c.86-.44,1.73-.76,2.57-1.1S116.23,393.91,117.06,393.57Z"></path></g><path class="cls-5" d="M466.48,237.53c.45-1.2.91-2.41,1.37-3.62,2.46-6.44,6.85-13.85,7.79-20.61,11.14,3.54,22,9.71,32.73,14.49-1.82,3.38-25,42.47-22.55,44.16-7.76-5.46-15.15-10-24.49-12.16a2.85,2.85,0,0,1-1.66-.79c-.6-.73-.31-1.82,0-2.72Q463,246.86,466.48,237.53Z"></path><path class="cls-19" d="M461.88,243s4.89-10,7.82-11.65c-.53,2.76-.71,3.73-.71,3.73s7.64-1.24,11.47-3.73,6.22-.09,3.29,4.8S469.43,244.76,466,247.6,461.88,243,461.88,243Z"></path><path class="cls-20" d="M428.12,410.74l15.53,4.51.33,5.5-20.33.84-7.55-3,3.14-10.34s0,0,0,0c.21.27,2.29,2.75,8.85,2.54Z"></path><path class="cls-21" d="M402.16,354.28l1.8-7.95,10.71,1.45s0,0,0,0c-.23.25-2.35,2.7-1.1,9.14h0l-2,16.05-5.37,1.21"></path><path class="cls-22" d="M446,300.22s22.33,31.62,23.23,37.87,3.94,14.14-55.85,19.88a46.73,46.73,0,0,1-.94-10.72s32.43-8.71,39.26-8.39c-10.58-15.44-26.38-24.79-28.7-26.93s5.2-14.08,5.2-14.08Z"></path><path class="cls-22" d="M408.69,307.11S419,339.52,420.3,349.24c-.54,14-3.51,53.18-2.7,62.37H430s4.29-39.26,5.64-46.56,3-23,1.29-36c-2.05-16-3-27.36-3-27.36Z"></path><path class="cls-19" d="M459.62,199.16c3.77-6.95,3.85-9.14,2.46-12-3.1-6.31-19.48-12.88-24.6-5.61s-4.79,11.06-4.75,24c-4.55,6.34-13.67,13.74-12.79,22.16.5,4.78,4.12,9.29,8.86,10.08a6.35,6.35,0,0,0,4.39-.68,9.1,9.1,0,0,0,3-4c.24-.48-2.75-1.52-.56-5.54,2.78-5.12,10.88-13.37,11.2-13,0,0,3.75,2.58,6.2,1.47.63-.29,1.57-1.53,2.68-3.6-.1.08.83-1.61.83-1.61.46-1,.95-2,1.45-3.21.22-.54,1.86,1.29,2.08.73C460.49,207.29,458.59,201.06,459.62,199.16Z"></path><path class="cls-23" d="M440.88,202.17a8.77,8.77,0,0,1,2.15-3c.62-.63,5.53-10.77,4.76-11.25,3.15,2,4.35,5.87,8.58,6.69a15.86,15.86,0,0,1,3.31.62c2.71,1.15,3.21,4.7,3.31,7.65a7,7,0,0,0,2.08-6.42c.36,1.08.72,2.17,1.07,3.25A15.05,15.05,0,0,0,462,182.18c-3.2-2.58-7.3-3.68-11.28-4.7a22.35,22.35,0,0,0-7.37-1c-3.87.33-7.29,2.66-10.06,5.38-4.89,4.81-2.08,18.46-.84,24.54a14.87,14.87,0,0,0,4.71-1.16c1.45-.72,2.64,3,2.91,1.45A26.78,26.78,0,0,1,440.88,202.17Z"></path><path class="cls-24" d="M435.25,223.84s7.08,4,8.9,15.66,3,37.39,3.88,43.7c.51,3.62,1.2,7.21,1.87,10.8.53,2.87,2.66,8,.83,10.68s-8.48,3.28-11.45,4.08q-6.67,1.78-13.4,3.41c-3.66.88-12.52-.3-17.19-5.06,0,0-.71-12.5-1.7-22.33-1-10.23-5.41-31.18-4-41.44,1.91-13.74,7.2-26.54,24.26-33.56C428,217.15,435.25,223.84,435.25,223.84Z"></path><path class="cls-25" d="M446.83,214.58a18.9,18.9,0,0,1-6.16-6.61s-1.94,5,4.32,7.61Z"></path><path class="cls-19" d="M442.49,203a18.61,18.61,0,0,0,1.65-4.29c.29-1.45.13-2.94-.68-3.49s-2.51.25-3.41,1.77a5.61,5.61,0,0,0-.59,4.65,2.5,2.5,0,0,0,2.86,1.49"></path><path class="cls-26" d="M438.61,258.79c-1.25-.65-2-2.94-3.17-5.63a90,90,0,0,1-4.28-13.11c-.92-3.71-1.65-7.56-3.68-10.79s-5.8-5.74-9.54-5-6.23,4.46-6.79,8.21c-1.42,9.57,5.66,20.92,10.3,28.94,2.2,3.78,11.71,24.37,17.9,19.51a131.87,131.87,0,0,0,28.28-30.55,4.1,4.1,0,0,0,.93-2.39,4.18,4.18,0,0,0-.86-2l-5.25-7.87a207.26,207.26,0,0,0-19.83,18.69C440.78,258.82,439.56,259.28,438.61,258.79Z"></path><path class="cls-5" d="M119.72,191.29h-55a8.39,8.39,0,0,1-8.37-8.36h0a8.39,8.39,0,0,1,8.37-8.37h55a8.38,8.38,0,0,1,8.36,8.37h0A8.38,8.38,0,0,1,119.72,191.29Z"></path><path class="cls-5" d="M142.82,180.14h-55a8.4,8.4,0,0,1-8.37-8.37h0a8.4,8.4,0,0,1,8.37-8.37h55a8.39,8.39,0,0,1,8.37,8.37h0A8.39,8.39,0,0,1,142.82,180.14Z"></path><path class="cls-5" d="M507,153H452a8.39,8.39,0,0,1-8.37-8.36h0a8.39,8.39,0,0,1,8.37-8.37h55a8.39,8.39,0,0,1,8.37,8.37h0A8.38,8.38,0,0,1,507,153Z"></path><path class="cls-5" d="M539.67,165h-55a8.39,8.39,0,0,1-8.36-8.37h0a8.39,8.39,0,0,1,8.36-8.37h55a8.39,8.39,0,0,1,8.36,8.37h0A8.39,8.39,0,0,1,539.67,165Z"></path><path class="cls-19" d="M409.61,363.36s.65,6.82-2,8-1.06,7.55-.25,7.71,9.59,2.44,10.89,2.11,8.12-3.57,8.12-4.06-5.12-5.52-5.12-5.52-2.68-1.95-2.52-9.26Z"></path><path class="cls-19" d="M386.63,390.88s-7.56,11.45.24,23.15,11.69-4.39,11.69-4.39l-2.43-17.29Z"></path><path class="cls-24" d="M396.61,373.83c-5.11,1.95-12.42,15.59-12.66,18s11.69,3.9,11.69,3.9l4.14-10.48Z"></path><path class="cls-19" d="M444.49,389.42s7.55,11.45-.24,23.15-11.7-4.39-11.7-4.39l2.44-17.3Z"></path><path class="cls-24" d="M432.55,372.53c5.11,2,14.38,15.43,14.62,17.87s-11.69,3.9-11.69,3.9l-4.15-10.48Z"></path><path class="cls-24" d="M407.58,371.4s.24,4.87,6.58,5.11,7.06-4.87,7.06-4.87,10,0,11.21.73,6.82,20.71,6.82,24.85-47-.24-47-.24,2.68-21.69,4.38-23.15S407.58,371.4,407.58,371.4Z"></path><path class="cls-5" d="M391.69,419.39s-.39-22.41,0-24.69,45.26-2.27,47.63-.65,1.18,25.66,1.18,25.66l-24.41,6.82Z"></path><path class="cls-27" d="M386.25,438.31c-5.16.67-17.84.87-17,8s15.27,4.51,18.86-.29S386.25,438.31,386.25,438.31Z"></path><path class="cls-23" d="M386.25,438.31c-1.91,1.27.44,6.48,1.82,7.69s61.51-5.08,67.41-19.15S441.73,401.4,386.25,438.31Z"></path><path class="cls-27" d="M441.59,437.3c5.19.51,17.87.34,17.28,7.47s-15.14,5-18.87.27S441.59,437.3,441.59,437.3Z"></path><path class="cls-23" d="M441.59,437.3c2,1.21-.24,6.49-1.59,7.74s-61.63-3.29-67.94-17.17S385.06,402,441.59,437.3Z"></path><path class="cls-27" d="M411.17,442.72c-7-2.21-14.68-3.09-21.85-4.91-.36-.1-.63.46-.27.62C395.71,441.39,411.63,442.87,411.17,442.72Z"></path><path class="cls-27" d="M416.86,424.92a.21.21,0,0,0-.21.37c5.67,4.09,16.47,8.79,23.19,10.86C440.67,436.41,423.12,428.14,416.86,424.92Z"></path><path class="cls-25" d="M418.76,365.34c-1.51.45-3.19,0-4.73-.14s-2.94-2.71-4.28-2.18c-.42.17-.29,3.55-.21,3.9.35,1.66,3.14,1.42,4.73,1.36A8.18,8.18,0,0,0,418.8,367C419.28,366.7,419.3,365.18,418.76,365.34Z"></path><path class="cls-19" d="M403.4,342.67c3-9.56,16.49-8.72,20.43-.86s2.12,24.77-9.38,25.63S401.88,347.45,403.4,342.67Z"></path><path class="cls-23" d="M401.68,353.43c.88,4.34,6-9.74,6-9.74s8.21,2.39,14.22,1.54c0,0,1.58,6.32,4.42,6.15s.16-13.67.16-13.67,3.8-.51,3.95-2S426,334,426,334s5.06-1.36,5.06-4.61-21.5.86-24.82,4.1C406.26,333.44,398.05,335.49,401.68,353.43Z"></path><path class="cls-28" d="M193.63,431.58l10.26,3a7.83,7.83,0,0,1,5.63,7.05h0l-20.36.85-7.58-3.05L184.73,429h0c.23.29,2.32,2.75,8.87,2.55Z"></path><path class="cls-22" d="M217.68,353.88c-.53-4.45-2-8.91-1.55-13.07,1.58-16.17-3-21.7-3.62-32.58a62.73,62.73,0,0,0-1.21-10.08c-8.38-.17-17.38,2-25.75,3.08,2.16-.27,11.57,58.66,11.52,63.39-.07,7.62-2.54,15-5,22.18-3.26,9.41-5.67,17.29-6.59,27-.52,5.41-5.42,11.28-4.44,16.47,3.13.44,9.66,2.15,12.63,1.28,0,0,8.07-18.57,9.89-23.6l12-33.08a48.25,48.25,0,0,0,2.25-7.5A45.76,45.76,0,0,0,217.68,353.88Z"></path><path class="cls-28" d="M182.46,435.6l10.26,3a7.83,7.83,0,0,1,5.64,7h0l-20.37.85-7.57-3.05,3.15-10.37h0c.22.28,2.3,2.76,8.87,2.56Z"></path><path class="cls-19" d="M234.21,262.24a25.69,25.69,0,0,1,8.68-10.39c-2.34,4.92,2.47,11.34-.4,16a5.53,5.53,0,0,1-10.21-3.45"></path><polygon class="cls-5" points="253.57 244.81 251.02 265.23 240.78 265.5 238.32 244.81 253.57 244.81"></polygon><polyline class="cls-29" points="255.77 245.09 236.52 245.09 236.52 243.06 238.32 243.06 238.32 239.87 254 242.21 254.04 243.33 255.77 243.33 255.77 245.31"></polyline><path class="cls-19" d="M253,249.17c0-1.3-2-1.77-3-.94a4.5,4.5,0,0,0-1.2,3.58,17.52,17.52,0,0,0,3.25,9.93,7.57,7.57,0,0,0,0-13.33"></path><path class="cls-22" d="M199.76,300.29c6.58,0,6.9-7.39,10.94-10.16,1.52,8,2.78,15.91,4.86,23.76-2.82,1.45-6.14,1.91-8.73,3.73-3.06,2.15-4.62,5.81-5.89,9.33A134.12,134.12,0,0,0,194.28,352c-1,6.64.11,13.44-.55,20.25Q192.4,386.24,191,400.2c-.49,5.08-2.65,35.52-5,35.62l-13,.51c-.49-28.81-2.6-58.1-1.49-86.88.48-12.33,1.45-24.75,2-37.13.09-2.1,2.17-19.27.29-20.75,1.82,1.43,8.09,5.91,10.58,6.62C190,299.85,194.54,301.68,199.76,300.29Z"></path><path class="cls-27" d="M209,235.27s2.3,37.24,7.3,35.93,18.4-11,18.4-11l8.15,8.93s-24.8,27.61-35,16.31S209,235.27,209,235.27Z"></path><path class="cls-24" d="M159.72,237.51s3.88-17.95,22.74-16.06l17.21,1.73a18.22,18.22,0,0,1,10.18,19.11c-1.65,14.11-2.46,27-2,29.48s4.58,24.71,3.34,26.22C198.7,313.1,167,289,167,289Z"></path><path class="cls-27" d="M182.46,221.45l-4.39,104.91L165,319.3c-1.2-.65-.79-21-.54-23.65,1.17-12.11,1.82-24.54-2.39-36.2-1.71-4.74-4.22-9.41-4.11-14.46.1-4.35,2.16-8.21,4.61-11.68,1.81-2.56,3-6.18,4.84-8.31C170.83,221.13,177.86,221,182.46,221.45Z"></path><path class="cls-27" d="M196.06,222.72s11.76,5.83,11.2,25.53,7.08,75.33,7.08,75.33l9.82-2s-11.38-52.74-11.86-62c-.49-9.42.35-22.75-6-31.94C201.74,221.06,196.06,222.72,196.06,222.72Z"></path><path class="cls-19" d="M166.5,304.05a59.63,59.63,0,0,0,12.42,8.46,2.65,2.65,0,0,1-4,.68,31.37,31.37,0,0,1,2.51,10.75,37.05,37.05,0,0,1-18.8-18.08"></path><path class="cls-27" d="M155.48,265.73c-11.58,16,4.9,27.35,15.48,38.6a23,23,0,0,0-10.67,6.95,148.8,148.8,0,0,1-17.86-18.6c-3.77-4.68-12-12-10.84-18.55,1.29-7.38,7.82-16.26,11.87-22.48a216.57,216.57,0,0,1,16.87-22.55,27.58,27.58,0,0,1,6.08-5.74,10.28,10.28,0,0,1,8-1.54c-2.23,8.53-3.88,17.38-6.41,25.81a22,22,0,0,1-3.13,5.65C161.91,257.56,158.53,261.52,155.48,265.73Z"></path><path class="cls-19" d="M198.46,228a29.83,29.83,0,0,1-1.19-9.2c4.74-.65,9.11-2.07,9.46-7.73.41-6.76,0-22.37,0-22.37l-12.43-6.08c-3.05,2.31-6.07,4.68-9.16,6.93-1.79,1.31-3.47,1.85-4.43,3.93a13.73,13.73,0,0,0-.74,8c1,5.42,5.13,10.25,4.59,15.75-.29,3-2,5.84-1.85,8.87a10.8,10.8,0,0,0,2.27,5.62c1.87,2.55,4.56,4.71,7.7,5.1s6.66-1.46,7.4-4.54A29.75,29.75,0,0,1,198.46,228Z"></path><path class="cls-25" d="M197.39,218.8a16.89,16.89,0,0,1-9-3s2,5,8.82,4.69Z"></path><path class="cls-23" d="M183.69,202.08c.35-2.93,1.26-5.88,1.27-8.79a19.76,19.76,0,0,0,8.79-.06,26.28,26.28,0,0,1,2.87-.63c2.5-.28,4.95.69,7.41,1.22,4,.85,7.46-.31,8.59-4.44.54-2,.86-4.44-.64-5.89a5.09,5.09,0,0,0-3.81-1.08,21.25,21.25,0,0,1-4.06.14c-2-.29-3.61-1.53-5.42-2.31a12.37,12.37,0,0,0-8.58-.38,18.59,18.59,0,0,0-3.53,1.87c-1.2.67-2.37.08-3.65.52a4.53,4.53,0,0,0-2.83,2.85,6.41,6.41,0,0,1-.94,2.55c-.43.47-1.08.7-1.54,1.14a3.58,3.58,0,0,0-.76,3.06,12.3,12.3,0,0,1,.25,3.25c-.21,1.32-.88,2.08-.62,3.36a17.14,17.14,0,0,1,.6,4.17c-.06,2.86-.39,4.77,1.59,7.05a10.88,10.88,0,0,0,5.91,3.5c.32.07.76.06.86-.25a.74.74,0,0,0-.15-.58c-1.14-1.92-1.2-4-1.58-6.13A13.68,13.68,0,0,1,183.69,202.08Z"></path><path class="cls-19" d="M184.53,206.54a18.24,18.24,0,0,0-.31-4.58c-.35-1.45-1.13-2.73-2.09-2.89s-2.18,1.29-2.36,3.05a5.65,5.65,0,0,0,1.44,4.47,2.49,2.49,0,0,0,3.22.14"></path><path class="cls-5" d="M247.37,236.65h0a5.28,5.28,0,0,0,5.26-5.26h0a5.28,5.28,0,0,0-5.26-5.27h0a5.28,5.28,0,0,0-5.27,5.27h0A5.28,5.28,0,0,0,247.37,236.65Z"></path><path class="cls-5" d="M251.69,234.78h0a4.16,4.16,0,0,0,4.15-4.15h0a4.17,4.17,0,0,0-4.15-4.15h0a4.17,4.17,0,0,0-4.15,4.15h0A4.16,4.16,0,0,0,251.69,234.78Z"></path><path class="cls-5" d="M239.72,238.73h0a1.18,1.18,0,0,0,1.18-1.18h0a1.18,1.18,0,0,0-1.18-1.18h0a1.19,1.19,0,0,0-1.19,1.18h0A1.19,1.19,0,0,0,239.72,238.73Z"></path><path class="cls-5" d="M236.75,235.81h0a2.07,2.07,0,0,0,2.07-2.07h0a2.08,2.08,0,0,0-2.07-2.08h0a2.08,2.08,0,0,0-2.08,2.08h0A2.08,2.08,0,0,0,236.75,235.81Z"></path><path class="cls-29" d="M228.06,439.62a2.71,2.71,0,0,1-1.06,2.47,1.69,1.69,0,0,1-2.06-.39,5.23,5.23,0,0,1-1-2,126.72,126.72,0,0,0-6-15.92c-1-2.17-3.29-5.84-2.26-8.61,1-2.58,4.43-3.76,6.64-3.69,4.32.14,3.48,7.36,3.85,10.66L228,438.69A6.92,6.92,0,0,1,228.06,439.62Z"></path><path class="cls-27" d="M213.53,345.73a8.92,8.92,0,0,1,2.77,1.55,8.7,8.7,0,0,1,2.34,2.06c4.08,4.29,5.62,9.16,6.88,14.94,1.43,6.57,5,16.1,6.45,22.67a2.75,2.75,0,0,1,0,1.63,2.42,2.42,0,0,1-.87.93,12.48,12.48,0,0,1-6.3,2.33,73,73,0,0,0-5.89-13.09c-3.18-5.16-7.59-9.45-11-14.44a15.65,15.65,0,0,1-2.41-4.68,19.05,19.05,0,0,1-.42-5.39c.05-2.53-.75-5.45,1.5-6.74C208.52,346.37,211.23,345.1,213.53,345.73Z"></path><path class="cls-30" d="M220.2,421.08a27.56,27.56,0,0,0,7.56-5c3.43-3.37,5.29-7.84,6.83-12.26A127,127,0,0,0,239.93,383c.69-4.09,4.19-12.25.08-15.64-1.94-1.61-7.37-2-9.89-2.55a112.09,112.09,0,0,0-20.35-2.32,39.65,39.65,0,0,1-9.12-.79c-5.91-1.53-10.32-6.09-13.63-10.88s-5.89-10.06-9.91-14.36a16.35,16.35,0,0,0-6.2-4.38,23,23,0,0,0-7.41-.94q-21.17-.33-42.3,1c-1.83.12-3.8.29-5.22,1.39-2.19,1.69-2.15,4.77-1.87,7.41a198.37,198.37,0,0,0,4.69,26.77,3.67,3.67,0,0,0,.77,1.73,4.28,4.28,0,0,0,2.39,1l15,2.83c5.22,1,10.66,2.07,14.77,5.23a23.31,23.31,0,0,1,6,7.46c5.25,9.53,7.64,20.32,12,30.23,1.59,3.66,1.74,7,5.47,9.6,4.35,3,10,2.19,14.94,1.31C200.45,425.29,210.32,425.75,220.2,421.08Z"></path><path class="cls-5" d="M222.38,402.11a92,92,0,0,0-18.57-10.76c-5.36-2.32-11.1-4.17-17-4.26a58.71,58.71,0,0,0-10.15,1L152.22,392a4.21,4.21,0,0,0-1.94.64,3.16,3.16,0,0,0-1,1.94c-.75,3.58.47,7.25,2,10.6a14.33,14.33,0,0,0,3.34,5c2.55,2.22,6.25,2.84,9.74,3.14,13.53,1.17,27.13-.79,40.56-2.75l13.48-2a10.47,10.47,0,0,0,4.12-1.2,3,3,0,0,0,1.53-3.48A4.7,4.7,0,0,0,222.38,402.11Z"></path><path class="cls-29" d="M170.63,418.84c2.63,1.8,1.68,4.6.56,6.88L165,438.44l-3.81,7.76a7.17,7.17,0,0,1-2.41,3.14,6.13,6.13,0,0,1-5.08.67,147.94,147.94,0,0,0,7.14-27.55A5.14,5.14,0,0,1,162.3,419C164.16,417.44,168.44,417.35,170.63,418.84Z"></path><path class="cls-29" d="M133.36,441c-.16.81,0,2.06.79,2.17.52.08.85-.41,1.09-.84q5.67-10.45,10.82-21.25c.92-1.91,1.81-4.22.71-6.32a5.78,5.78,0,0,0-2.66-2.42c-1.4-.69-3.1-.91-4.21-.07s-1.3,2.13-1.56,3.42Z"></path><path class="cls-31" d="M163.46,310.43a2.67,2.67,0,0,1,1,.53c2,1.74,2.49,7.56,3,10s.75,5.23-.67,7.3-4.29,1.8-5.87,3.53c-1.13,1.25-1,3.34-1.24,4.91-.41,2.82-.46,9.15-2.73,11.24-1.91,1.75-5.11,1.27-7.12-.37-6.28-5.09-4.18-12.42-3.68-19.43l1.11-15.62c0-.39,10.23-1.57,11.06-1.7C159.8,310.63,161.89,309.92,163.46,310.43Z"></path><path class="cls-21" d="M170.25,302.09a10.69,10.69,0,0,0-1.55-2.83c-2.45-3.21-6.19-2.6-9.69-2.11-4.32.6-8.73.84-13,1.55-3.52.57-7.11,1.87-9.39,4.6-3.07,3.69-3,9.06-2,13.74a20.89,20.89,0,0,0,3.63,8.47,10.88,10.88,0,0,0,7.84,4.42c3.46.16,6.65-1.73,9.5-3.7-1.48-1.64-3.75-6.29-.41-6.41,1.14,0,4,2.12,4.43,3.24,0,0-2.21-6.6-1.23-8.21.22-.37,5.74-.47,6.64-1,4.18-2.21,2.1-5,1.86-8.67a8.66,8.66,0,0,1,1,6.85c2.11-1.13,3.1-3.68,3.13-6.07A10.93,10.93,0,0,0,170.25,302.09Z"></path><path class="cls-27" d="M194.92,394.66c2.62-2,4.39-4.86,6.1-7.69q7.92-13.12,15.85-26.25a16.93,16.93,0,0,0,2.1-4.37,8.9,8.9,0,0,0-4.63-10c-5.25-2.42-11.36,1.27-14.83,6S194,362.72,190,367c-2.28,2.43-19.21,5.47-21.51,7.88-4.84,5.06,7.25,11.6,8.73,18.52C178.89,401.05,190.17,398.24,194.92,394.66Z"></path><path class="cls-5" d="M171.61,340.34c2-.19,3.89.84,5.76,1.57,8.24,3.24,17.29.56,25.72-.59a.5.5,0,0,1,.68.66,71.75,71.75,0,0,1-10.71,28.25,3.47,3.47,0,0,1-.83,1,3.52,3.52,0,0,1-2.75.17,189.45,189.45,0,0,1-21.7-6,2,2,0,0,1-1-.6,1.87,1.87,0,0,1-.18-1.34C167.58,355.6,170.31,348.12,171.61,340.34Z"></path><path class="cls-19" d="M189.84,360.59c.17-2.85,3.7-5,6-6.5.39-.26,1-.48,1.25-.09a.88.88,0,0,1,.07.68l-.3,2a2.25,2.25,0,0,0,2.12-.24,7.07,7.07,0,0,1,2-1c.73-.13,1.64.28,1.7,1C202.87,360,193,367,190.51,363A4.11,4.11,0,0,1,189.84,360.59Z"></path><path class="cls-24" d="M182.05,397.05a3,3,0,0,1-.69,1.23,2.47,2.47,0,0,1-1.31.49,94.92,94.92,0,0,1-10.89,1.08,11.14,11.14,0,0,1-4.77-.55,25.26,25.26,0,0,1-4-2.7C155.76,393.55,150,394,144.72,393a3.31,3.31,0,0,1-1.36-.48c-1-.73-1-2.26-1.15-3.55-.5-5.28,2.85-5.13.53-9.79-4-8.05-9.26-16.13-9.26-26.29,0-4.6,2.24-10.88,5.87-13.83a7.5,7.5,0,0,1,2-1.28,7.32,7.32,0,0,1,2.29-.36c13.09-.69,20.35,7.28,24.87,19a92.92,92.92,0,0,0,4.74,10.82c1.91,3.26,2.77,2.85,5.53,5.33a19.78,19.78,0,0,1,6,9C186.29,386.79,183.83,392.18,182.05,397.05Z"></path><path class="cls-5" d="M164.34,393.39a14,14,0,0,0-1.82-4.92,20.19,20.19,0,0,1-2.32-4.05c-.55-1.79-.21-3.72,0-5.58a20.78,20.78,0,0,0-1-10.09,11.25,11.25,0,0,0-7.21-6.77c-2.5-.64-5.12-.19-7.69-.07a30.18,30.18,0,0,1-7.47-.55c-2.28-.47-4.57-1.19-6.89-1s-4.74,1.73-5.06,4a4.66,4.66,0,0,0,2,4.21l1.08,3.28c.35,1.29.7,2.59,1.06,3.88a40,40,0,0,0,1.56,4.87c2.8,6.72,9,11.37,15,15.42,4,2.7,8.6,5.39,13.39,4.7a6.5,6.5,0,0,0,5.08-3.27A7.06,7.06,0,0,0,164.34,393.39Z"></path><path class="cls-32" d="M119,368.92c1.28-1.28,3.47-1.12,5.32-.83a150.28,150.28,0,0,1,25.44,6.26c4.19,1.43,8.49,3.17,11.28,6.4a22.84,22.84,0,0,1,3.39,5.85,162.87,162.87,0,0,1,5.9,15.23c2.32,7,4.48,14.65,10.57,19.33,2.08,1.59,4.78,3.12,5,5.62-8,1.38-16.38.31-24.11-2.11A106.27,106.27,0,0,1,140,414.44a38.57,38.57,0,0,1-7-4.9,29.89,29.89,0,0,1-3.47-4A57.7,57.7,0,0,1,118,372.68,4.93,4.93,0,0,1,119,368.92Z"></path><path class="cls-24" d="M146.65,342.76a6,6,0,0,1,2.24.82,16.71,16.71,0,0,1,4.37,3.11,29.84,29.84,0,0,1,3,4.48,55.25,55.25,0,0,0,4.46,5.78q2.52,3,5,5.93a7,7,0,0,0,2.5,2.13c2.71,1.09,7-2.14,9.48-3.2q5.84-2.51,11.81-4.69,1,3.24,2.05,6.48a1.34,1.34,0,0,1,.08.9,1.37,1.37,0,0,1-.57.6c-6,4.2-14.76,11.5-22.61,9.73-8.4-1.9-17.11-8.55-23.24-14.3a12.84,12.84,0,0,1-3.3-4.22,11.06,11.06,0,0,1-.63-4.71C141.49,348.37,141.85,342.34,146.65,342.76Z"></path><path class="cls-33" d="M215.36,357.11l-.3-.3"></path><path class="cls-24" d="M161,338.08a1.28,1.28,0,0,1,.94.31c.3.33.18.84.05,1.26-.43,1.34-.86,2.68-1.28,4-.11.34-.26.73-.59.86a1.2,1.2,0,0,1-.93-.15c-4.94-2.28-8.83-5.06-14.42-5.41-2.14-.13-3.47.57-3.9-2-.34-2,1.78-4.47,3.07-5.64C149.31,334.87,154.37,337.7,161,338.08Z"></path><circle class="cls-7" cx="415.15" cy="408.47" r="3.88"></circle></g></g></svg> 