<svg xmlns="http://www.w3.org/2000/svg" xmlns:xlink="http://www.w3.org/1999/xlink" viewBox="0 0 185 34">
  <defs>
    <path id="b" d="M102.6 83v4.99H90.81v13.09H85V83zm97.65-4.42l-8.3 22.5h-6.14l-8.3-22.5h6.1l5.3 16.48h.13l5.36-16.48zm2.28 0h5.73v22.5h-5.73zM261.78 82a7.14 7.14 0 0 1 6.31-3.68c.63 0 1.17.04 1.66.17v5.27a9.18 9.18 0 0 0-1.82-.16c-2.87 0-5.65 1.6-5.65 5.89v11.58h-5.73v-22.5h4.57l.58 3.43zm-145.63.58c-2.82 0-5.23 2.04-5.85 5.31h10.75c-.08-3.47-2.24-5.31-4.9-5.31zm-11.3 7.32c0-7.2 5.11-11.86 11.34-11.86 5.69 0 10.34 3.92 10.34 11.37 0 .78-.08 1.43-.17 2.04h-16.02c.79 3.6 3.73 5.6 7.51 5.6 2.53 0 5.03-.9 7.27-2.45v4.83a15 15 0 0 1-7.93 2.2c-7.72 0-12.33-4.86-12.33-11.73zm35.06-7.32c-2.83 0-5.24 2.04-5.86 5.31h10.75c-.08-3.47-2.24-5.31-4.9-5.31zm-11.3 7.32c0-7.2 5.1-11.86 11.34-11.86 5.68 0 10.33 3.92 10.33 11.37 0 .78-.08 1.43-.16 2.04h-16.03c.8 3.6 3.74 5.6 7.52 5.6 2.53 0 5.02-.9 7.26-2.45v4.83a15 15 0 0 1-7.93 2.2c-7.72 0-12.33-4.86-12.33-11.73zm82.97-4.87c0-4.05 3.37-7 8.97-7 2.66 0 5.4.7 7.1 1.8v4.96a12.35 12.35 0 0 0-6.9-2.1c-2.31 0-3.6.87-3.6 2.22 0 1.43 1.5 2 4.27 2.74 3.66.94 7.64 2.17 7.64 6.83 0 4.34-3.44 7.16-9.34 7.16-3.2 0-6.02-.86-8.05-2.3V94a11.68 11.68 0 0 0 7.8 2.94c2.58 0 4.03-.94 4.03-2.4 0-1.6-1.79-2.14-4.86-3.04-3.7-1.02-7.06-2.41-7.06-6.46zm24.8 4.79c0 4.25 2.95 6.66 6.02 6.66 3.07 0 5.98-2.45 5.98-6.66 0-4.26-2.9-6.67-5.98-6.67-3.07 0-6.02 2.41-6.02 6.67zm-5.77 0c0-6.92 5.15-11.78 11.79-11.78 6.68 0 11.75 4.86 11.75 11.78 0 6.87-5.07 11.82-11.75 11.82s-11.8-4.91-11.8-11.82zM103.3 69.17v5.23H90.8v4.18H85v-9.41zm54.83 20.66c0 3.88 2.57 6.66 6.02 6.66 3.36 0 5.9-2.74 5.9-6.66 0-3.93-2.54-6.67-5.9-6.67-3.45 0-6.02 2.78-6.02 6.67zm17.56-21.56v32.8h-4.82l-.58-3.68a8.85 8.85 0 0 1-7.64 4.26c-5.31 0-10.3-4.62-10.3-11.82s4.9-11.78 10.26-11.78c3.11 0 5.9 1.55 7.35 4V68.28zm26.75 0h5.85v5.76h-5.85z"/>
    <linearGradient id="a" x1="85" x2="269.75" y1="84.96" y2="84.96" gradientUnits="userSpaceOnUse">
      <stop offset="0" stop-color="#ef3b3b"/>
      <stop offset="1" stop-color="#e83d80"/>
    </linearGradient>
  </defs>
  <g clip-path="url(#clip-B2F5F172-AEFA-227E-0A9A-0C831462FC71)" transform="translate(-85 -68)">
    <use fill="url(#a)" xlink:href="#b"/>
  </g>
</svg>
