<?xml version="1.0" encoding="UTF-8"?> <svg xmlns="http://www.w3.org/2000/svg" width="1395.189" height="689.757" viewBox="0 0 1395.189 689.757"><g id="Group_656" data-name="Group 656" transform="translate(13804.095 881.402)"><g id="Group_595" data-name="Group 595" transform="translate(-13804.095 -881.402)"><rect id="Rectangle_178" data-name="Rectangle 178" width="1395.19" height="689.757" transform="translate(0 0)" fill="#fff"></rect><g id="Group_565" data-name="Group 565" transform="translate(103.461 155.375)"><g id="Group_562" data-name="Group 562" transform="translate(153.944 0)"><path id="Path_1161" data-name="Path 1161" d="M70.606,320.387c10.417-.063,20.856-.356,31.174,1.464,12.884,2.27,21.087,10.022,23.118,23,2.807,17.922,5,35.943,7.373,53.935s4.617,36,6.982,53.991c1.031,7.839-1.326,15.332-2.136,22.983a2.673,2.673,0,0,1-2.412,2.553,46.908,46.908,0,0,1-11.8.008c-2.157-.279-2.537-2.132-2.77-3.9q-4.809-36.372-9.593-72.747c-1.956-14.864-3.781-29.744-5.885-44.586-1.373-9.68-7.211-15.763-17.09-16.9-13.817-1.584-27.768-1.922-41.54.279-14.009,2.238-20.407,9.139-23.392,23.09C14.771,400.3,6.762,437.014-1.045,473.774c-.8,3.762-2.76,5.038-6.243,4.8-3.3-.219-6.606-.642-9.909-.656-3.518-.016-4.326-1.513-3.623-4.769,2.9-13.426,5.646-26.885,8.487-40.323,5.454-25.8,11.608-51.471,16.209-77.42,4.127-23.28,19.8-32.182,39.76-34.272C52.617,320.2,61.611,320.432,70.606,320.387Z" transform="translate(21.052 -320.331)" fill="#888887"></path><path id="Path_1162" data-name="Path 1162" d="M251.31,542.085q-47.567-1.455-95.132-2.922-25.078-.8-50.151-1.788a56.79,56.79,0,0,1-24.094-6.347c-8.679-4.479-10.986-9.7-9.3-21.124q7.026-47.784,14.254-95.539c.992-6.567,4-9.052,9.186-8.252,4.157.64,6.257,3.084,5.9,7.165-1.031,11.669-.363,23.361-.691,35.038-.626,22.247-1.253,44.491-1.746,66.74-.237,10.727,2.558,13.4,13.268,13.631q46.64,1.02,93.275,2.138c18.774.472,37.543,1.13,56.315,1.709.788.023,1.58.041,2.363.136,3.011.37,4.526,2.134,4.4,5.123-.119,2.825-1.792,4.346-4.573,4.4-4.421.087-8.845.023-13.268.023Z" transform="translate(111.944 -236.788)" fill="#888887"></path></g><g id="Group_563" data-name="Group 563" transform="translate(0 81.219)"><path id="Path_1163" data-name="Path 1163" d="M-25.457,381.718c6.673.257,14.421-.557,22.1,1.124,15.476,3.386,21.526,12.245,18.821,27.865-.944,5.447-1.881,10.9-2.707,16.359-.46,3.041-2,4.338-5.119,4.208-3.943-.168-7.9-.13-11.849-.014-3.509.1-5.01-1.16-4.133-4.83a59.286,59.286,0,0,0,1.314-7.944c.565-5.694-1.859-9.637-7.4-11.081a39.524,39.524,0,0,0-23.305.915,8.4,8.4,0,0,0-6.041,7.224c-.263,2.035-.686,4.048-1,6.077C-46.648,433.75-43.4,439.04-31.6,442.916c4.352,1.428,8.835,2.481,13.131,4.052,15.22,5.567,25.232,17.511,21.4,35.611C.451,494.312-.863,506.286-3.1,518.074a28.671,28.671,0,0,1-16.356,21.387,54.061,54.061,0,0,1-19.109,5.222c-13.222,1.13-26.466,1.333-39.643-.672a30.794,30.794,0,0,1-12.327-4.656c-7.256-4.737-9.327-11.735-8.117-19.811,1.239-8.275,3.048-16.462,4.423-24.72.527-3.161,2.207-4.22,5.2-4.145,4.105.1,8.22.123,12.325-.012,3.127-.1,4.342,1.039,3.7,4.23-.845,4.176-1.545,8.386-2.193,12.6-.93,6.043,1.175,10.016,7.041,11.583,7.916,2.116,15.954,2.116,23.687-1.124a10.07,10.07,0,0,0,6.551-8.094c.539-3.59,1.294-7.164,1.569-10.773.575-7.519-3.159-12.576-9.617-15.974-7-3.687-14.921-5.113-21.784-9.23-14-8.4-19.086-18.95-16.425-35.018,1.5-9.038,3.042-18.066,4.463-27.115,2.416-15.386,11.626-24.344,26.35-28.242C-44.521,381.165-35.494,381.791-25.457,381.718Z" transform="translate(98.978 -341.687)" fill="#13b0f3"></path><path id="Path_1164" data-name="Path 1164" d="M62.151,564.738c-4.423-.275-10.777.709-17.035-.613C32.978,561.567,28.568,555.271,30.6,543c1.727-10.439,3.732-20.834,5.6-31.249,2.487-13.835,5.03-27.662,7.426-41.512,2.345-13.55,10.619-21.182,24.349-22.26,6.612-.521,13.228-1.306,19.86-.814,4.3.32,6.179-1.292,6.93-5.6,4.283-24.584,8.908-49.11,13.147-73.7.784-4.548,2.3-6.748,7.244-6.379,5.186.389,10.423.059,15.638.1,5.81.04,6.093.336,5.121,5.913q-11.24,64.416-22.521,128.825c-2.614,14.935-5.172,29.882-7.878,44.8-2.833,15.6-11.357,22.962-27.268,23.592C73.516,564.9,68.769,564.738,62.151,564.738Zm19.228-99.492c-6.16.069-8.5,1.932-9.615,8.033-1.7,9.3-3.273,18.625-4.9,27.94-2.254,12.884-4.54,25.765-6.731,38.661-.413,2.428-1.085,5.051,1.932,6.63a10.067,10.067,0,0,0,14.7-7.047Q82.8,506.2,88.742,472.917C89.783,467.087,87.892,465.175,81.379,465.246Z" transform="translate(224.921 -361.443)" fill="#13b0f3"></path><path id="Path_1165" data-name="Path 1165" d="M-15.987,522.438c-4.162-.251-10.352.7-16.45-.553-12.478-2.556-16.851-8.9-14.672-21.363,2.2-12.594,4.5-25.17,6.747-37.757,2.049-11.5,4.158-22.987,6.089-34.507,2.305-13.752,9.759-21.022,23.519-22.492a160.1,160.1,0,0,1,34.485-.077c13.226,1.44,18.732,8.534,16.468,21.606-4.147,23.949-8.25,47.9-12.5,71.835-2.7,15.21-11.34,22.6-27.02,23.276C-4.211,522.616-9.114,522.438-15.987,522.438Zm5.581-17.274c3.613-.514,8.175-.452,9.143-5.8q6.324-34.908,12.44-69.853c.326-1.841.482-3.781-1.339-5.19-5.044-3.9-14.414-.707-15.54,5.488q-6.128,33.74-12.015,67.526C-18.731,503.139-16.817,505.146-10.406,505.164Z" transform="translate(149.053 -319.15)" fill="#13b0f3"></path><path id="Path_1166" data-name="Path 1166" d="M5.623,564.747a75.9,75.9,0,0,0-8.046.052c-4.567.49-5.32-1.531-4.607-5.559Q.825,514.956,8.458,470.631,17.244,420.023,25.963,369.4c1.349-7.849,1.247-7.869,9.084-7.873,4.893,0,9.793.123,14.682-.033,3.568-.112,4.745,1.1,4.078,4.775-3.015,16.614-5.818,33.266-8.718,49.9q-12.111,69.493-24.27,138.978c-1.964,11.148-.535,9.412-11.407,9.6C8.149,564.765,6.887,564.747,5.623,564.747Z" transform="translate(188.448 -361.4)" fill="#13b0f3"></path><path id="Path_1167" data-name="Path 1167" d="M23.307,518.408c-13.434.02-13.444.018-11.126-13.074,5.338-30.135,10.753-60.258,15.953-90.417.765-4.437,2.568-6.229,7.157-5.915,5.342.366,10.729.15,16.095.079,3.317-.045,4.481,1.237,3.876,4.641q-8.934,50.326-17.689,100.683c-.49,2.819-1.91,4.119-4.795,4.026C29.623,518.331,26.464,518.408,23.307,518.408Z" transform="translate(206.288 -315.081)" fill="#13b0f3"></path></g><g id="Group_564" data-name="Group 564" transform="translate(378.305 121.163)"><path id="Path_1168" data-name="Path 1168" d="M298.835,419.422c2.468-.751,3.438-2.718,4.951-4.014,8.965-7.675,18.963-11.947,30.971-9.266,7.134,1.595,12.381,5.672,14.485,12.869,1.323,4.528,2.8,3.4,5.1.788,5.984-6.758,12.964-11.946,22.069-13.868,16.739-3.534,28.859,6.057,29.293,23.041.259,10.081-2.177,19.753-3.85,29.54-3.248,18.991-6.79,37.933-9.969,56.935-.678,4.06-2.316,5.591-6.454,5.6-11.146.018-11.114.174-9.176-10.853q5.82-33.133,11.591-66.269a35.612,35.612,0,0,0,.338-10.388c-.824-6.944-5.555-11.231-12.541-10.94-11.616.48-18.778,7.3-23.284,17.388-3.718,8.321-4.67,17.355-6.263,26.2q-4.492,24.948-8.716,49.94c-.577,3.465-2.082,4.8-5.581,4.9-11.672.336-11.78.414-9.862-10.745,3.532-20.546,7.282-41.054,10.781-61.6.946-5.563,2.23-11.148.78-16.9-1.44-5.709-5.113-9.107-11.02-9.186-11.087-.146-18.369,5.812-23.142,15.239-4.263,8.42-5.873,17.638-7.511,26.828-3.05,17.1-6.231,34.181-9.135,51.309-.63,3.712-2.232,5.059-5.915,5.05-14.178-.038-11.409.342-9.477-11,5.435-31.915,11.179-63.778,16.879-95.648.391-2.2-.026-5.4,2.847-5.968a26.539,26.539,0,0,1,11.737.146c1.2.306.759,1.879.761,2.969C299.533,414.021,298.166,416.394,298.835,419.422Z" transform="translate(76.446 -358.697)" fill="#f5894b"></path><path id="Path_1169" data-name="Path 1169" d="M227.912,420.839c19.722-21.844,47.658-19.847,52.674,2.278,2.693-2.679,5.093-5.271,7.7-7.632,8.791-7.942,18.805-12.265,30.822-9.333,10,2.442,15.587,9.894,16.166,20.188.719,12.808-2.511,25.088-4.613,37.516-2.819,16.658-5.806,33.288-8.752,49.924-1.264,7.144-1.3,7.138-8.436,7.163-9.249.032-9.315.022-7.736-9.052q5.728-32.9,11.592-65.776a52.62,52.62,0,0,0,.66-9.907c-.117-10.356-7.377-15.814-17.424-13.08-11.717,3.187-17.535,11.924-20.516,22.8-3.931,14.334-5.563,29.145-8.311,43.727-1.667,8.845-3.289,17.7-4.662,26.593-.5,3.26-1.831,4.589-5.162,4.735-12.237.537-12.272.616-10.21-11.285q5.784-33.37,11.646-66.724a22.375,22.375,0,0,0,.423-3.285c.138-5.939.249-12.055-5.846-15.453-6.179-3.448-12.323-1.831-18.009,1.48-8.734,5.085-12.258,13.795-14.823,22.867-4.479,15.838-6.189,32.237-9.332,48.35-1.209,6.2-2.311,12.422-3.24,18.667-.555,3.736-2.171,5.381-6.189,5.421-11.415.11-11.34.279-9.34-10.968,5.634-31.713,11.172-63.445,16.855-95.15.415-2.321-.219-5.792,2.8-6.5a25.911,25.911,0,0,1,11.737.081c1.29.3,1.045,1.76.889,2.869C228.88,414.128,228.477,416.908,227.912,420.839Z" transform="translate(8.414 -358.669)" fill="#f5894b"></path><path id="Path_1170" data-name="Path 1170" d="M92.533,486.5c1.31-28.626,7.244-55.823,26.125-78.53,16.13-19.4,36.54-29.518,62.245-25.4,15.016,2.4,24.9,11.626,29.985,25.893a55.257,55.257,0,0,1,3.39,15.7c.146,2.809-.867,4.469-3.675,5.144-3.378.814-6.746,1.709-10.05,2.778-3.194,1.036-4.682.018-5.081-3.285a44.657,44.657,0,0,0-3.274-12.811c-4.86-10.994-14.131-16.2-26.174-15.554-19.034,1.014-31.577,11.421-40.57,27.154-8.481,14.839-11.924,31.151-13.695,47.946-.816,7.742-1.037,15.49.433,23.106,2.284,11.83,7.179,22.254,19.56,26.45,13.71,4.644,26.239,1.353,37.211-7.715,8.242-6.812,13.562-15.8,17.2-25.72,1.416-3.866,3.285-5,7.027-3.208a45.058,45.058,0,0,0,5.389,1.8c6.958,2.3,6.948,2.3,3.777,9.156-6.172,13.357-13.876,25.617-25.955,34.457-16.828,12.318-35.285,15.629-55.171,8.862-10.486-3.57-17.478-11.152-21.9-21.083A81.458,81.458,0,0,1,92.533,486.5Z" transform="translate(-92.516 -381.662)" fill="#f5894b"></path><path id="Path_1171" data-name="Path 1171" d="M391.406,469.833c-9.795.008-19.591.1-29.386-.039-3.748-.052-5.52,1.2-5.468,5.176.073,5.691-.129,11.351,1.756,16.869,4.524,13.252,17.037,18.521,29.692,12.444,6.241-3,10.557-7.973,13.955-13.77,4.824-8.232,4.168-6.77,11.818-5.644,8.945,1.32,9.137,1.675,4.763,9.716-7.748,14.238-18.513,24.57-35.1,27.828-24.22,4.759-43.385-10.192-44.086-34.854-.6-21.158,3.457-41.291,15.366-59.1,6.993-10.461,16.466-18.211,28.985-21.689,21.628-6.012,40.319,6.041,43.907,28.236,1.644,10.162.559,20.127-1.122,30.131-.571,3.392-2.144,4.814-5.7,4.751C411,469.715,401.2,469.827,391.406,469.833Zm-5.045-17.112h12.3c13.951,0,15.026-1.409,11.839-15.512-2.572-11.4-12.017-17.581-23.412-14.842-13.38,3.213-20.139,13.14-24.6,25.235-1.343,3.637-.658,5.271,3.532,5.16C372.794,452.585,379.58,452.715,386.36,452.721Z" transform="translate(148.227 -358.672)" fill="#f5894b"></path><path id="Path_1172" data-name="Path 1172" d="M507.292,469.825c-9.476.006-18.961.245-28.424-.093-4.9-.176-6.474,1.65-6.19,6.3.269,4.4.02,8.807.978,13.189,3.694,16.865,22.083,23.165,35.315,11.98,4.127-3.491,7.859-7.432,10.075-12.418,1.758-3.959,4.082-5.656,8.481-4.251a43.669,43.669,0,0,0,7.466,1.209c2.262.3,3.092,1.44,2.181,3.578-9.21,21.624-27.883,37.429-53.938,33.071-16.022-2.679-26.348-15.093-27.555-32.8-1.337-19.633,2.256-38.48,11.826-55.773,7-12.657,17-22.355,31.281-26.692,22.517-6.841,41.526,5.38,45.048,28.636,1.517,10.018.285,19.811-1.272,29.651-.514,3.256-2.13,4.5-5.423,4.459C527.194,469.737,517.241,469.822,507.292,469.825Zm-4.807-17.108h12.308c14.105,0,15.056-1.235,11.9-15.46-2.486-11.221-11.818-17.517-22.911-15.01-13.842,3.125-20.812,13.206-25.257,25.739-1.336,3.764.008,4.819,3.6,4.757C488.916,452.628,495.7,452.711,502.485,452.717Z" transform="translate(261.504 -358.668)" fill="#f5894b"></path><path id="Path_1173" data-name="Path 1173" d="M151.67,481.629c1.027-20.619,4.656-40.467,17.95-57.226,5.9-7.43,13.135-13.2,22.158-16.424,25.074-8.963,47.433,4.228,49.691,30.684,2.009,23.539-3.11,45.987-17.644,65.28-8.633,11.46-20.269,18.558-34.991,19.07-21.547.747-35.947-12.695-37.146-34.282C151.555,486.372,151.67,484,151.67,481.629Zm73.079-31.775c.083-5.789-.626-11.393-3.24-16.607-5.263-10.5-16.075-14.323-26.783-9.484A32.809,32.809,0,0,0,180.5,435.909c-10.362,15.931-13.588,33.7-11.12,52.146,2.333,17.438,19.641,24.052,34.033,13.849a36.4,36.4,0,0,0,9.838-10.109C221.45,478.986,223.789,464.612,224.749,449.854Z" transform="translate(-34.855 -358.72)" fill="#f5894b"></path><path id="Path_1174" data-name="Path 1174" d="M413.232,482.859c1.44-20.48,4.269-40.71,17.207-57.623,11.081-14.487,25.646-22.428,44.5-19.274,18.2,3.048,23.337,17.436,23.71,32.253.043,1.719-.591,3.2-2.434,3.589-3.706.778-7.424,1.517-11.168,2.074-2.43.362-2.768-1.652-3.068-3.366-.517-2.948-.7-5.942-1.879-8.767-3.261-7.807-10.008-11.531-18.307-9.779-10.182,2.15-17.2,8.592-21.743,17.539-7.448,14.682-10.174,30.5-9.35,46.85.509,10.1,5.873,17.116,13.892,19.528,7.825,2.355,17.752-1.258,23.608-8.509a45.869,45.869,0,0,0,7.825-14.52c1.073-3.228,2.983-4.2,6.1-3.465.768.18,1.543.34,2.321.468,9.431,1.551,9.388,1.531,5.443,10.508-7.031,15.994-17.642,28.051-35.483,31.939-18.729,4.082-34.649-5.877-39.309-24.406A52.655,52.655,0,0,1,413.232,482.859Z" transform="translate(220.324 -358.626)" fill="#f5894b"></path><path id="Path_1175" data-name="Path 1175" d="M417.2,420.811c3.053-3.72,5.306-7.124,8.347-9.838,7.683-6.861,16.415-7.544,24.736-2.029,2.456,1.628,3.589,3.216,2.015,6.189-2.064,3.9-3.8,7.977-5.666,11.984-.782,1.675-1.671,2.24-3.7,1.428-12.011-4.816-20.164-1.385-25.472,10.547-4.405,9.9-6.432,20.439-8.242,31.038-2.576,15.089-5.285,30.155-7.762,45.262-.654,3.989-2.444,5.577-6.575,5.6-11.3.053-11.316.2-9.392-10.644q8.392-47.315,16.863-94.616c.454-2.527-.166-6.13,2.613-7.175,3.665-1.379,7.805-.81,11.7-.251,1.974.282,1.292,2.114,1.274,3.5C417.914,414.534,416.464,417.176,417.2,420.811Z" transform="translate(192.363 -358.641)" fill="#f5894b"></path></g><path id="Path_1176" data-name="Path 1176" d="M34.3,416.458c-3.153,0-6.306-.01-9.459,0-2.825.012-4.113-1.389-3.643-4.161.79-4.66,1.727-9.293,2.537-13.949.419-2.4,1.774-3.584,4.192-3.586,6.3-.006,12.61,0,18.914-.022,3.238-.012,4.091,1.8,3.594,4.635-.705,4.036-1.567,8.046-2.132,12.1-.5,3.6-2.228,5.3-5.966,5.042-2.667-.185-5.358-.036-8.036-.036Z" transform="translate(216.118 -247.738)" fill="#13b0f3"></path></g></g></g></svg> 