<?xml version="1.0" encoding="UTF-8"?> <svg xmlns="http://www.w3.org/2000/svg" width="1395.189" height="689.757" viewBox="0 0 1395.189 689.757"><g id="Group_649" data-name="Group 649" transform="translate(15356.047 2574.441)"><g id="Group_584" data-name="Group 584" transform="translate(-15356.047 -2574.441)"><rect id="Rectangle_178" data-name="Rectangle 178" width="1395.19" height="689.757" fill="#fff"></rect><g id="logo-seller-active" transform="translate(148.546 172.353)"><path id="Path_1047" data-name="Path 1047" d="M166.01,18.383A19.3,19.3,0,1,1,162,32.48l18.712,2.356a4.564,4.564,0,0,0,2.427-8.671l-17.123-7.782Z" transform="translate(880.799 59.807)" fill="#deeab7" fill-rule="evenodd"></path><path id="Path_1048" data-name="Path 1048" d="M139,35.185A32.185,32.185,0,1,1,171.185,67.37,32.185,32.185,0,0,1,139,35.185" transform="translate(755.747 16.311)" fill="#c9dc86" fill-rule="evenodd"></path><path id="Path_1049" data-name="Path 1049" d="M105,30.432a11.536,11.536,0,1,1,11.535,11.432A11.486,11.486,0,0,1,105,30.432ZM450.656,70.393a34.992,34.992,0,0,1,8.381,22.748,35.614,35.614,0,1,1-35.61-35.288,36.008,36.008,0,0,1,9.527,1.275l-14.38,31.85a5.309,5.309,0,0,0,8.844,5.639l23.237-26.224Z" transform="translate(570.888 103.304)" fill="#b4d050" fill-rule="evenodd"></path><path id="Path_1050" data-name="Path 1050" d="M893.64,52.436a31.809,31.809,0,1,1,31.812,31.722A31.767,31.767,0,0,1,893.64,52.436Zm129.352,119.51a35.636,35.636,0,1,1-27.229-12.623,35.762,35.762,0,0,1,9.533,1.287l-14.38,32.05a5.313,5.313,0,0,0,8.838,5.677Zm23.856-92.487a20.467,20.467,0,1,1-4.261,14.947l19.852,2.5c3.244.032,5.407-2.131,5.407-4.8a4.822,4.822,0,0,0-2.832-4.4Zm-80.083,5.42,58.512,7.351a37.354,37.354,0,0,0,3.579,15.9l-15.018,33.453a56.316,56.316,0,1,0,22.935,14.7l23.457-26.649c.914.064,1.841.1,2.768.1a37.621,37.621,0,1,0-32.05-57.489L977.856,48.149a52.468,52.468,0,1,0-11.085,36.73ZM0,228.746c6.45,3.457,19.35,6.759,31.728,6.759,30.331,0,44.628-14.947,44.628-31.928,0-15.256-9.939-24.538-30.338-31.458-15.687-5.5-22.485-9.276-22.485-17.457,0-6.135,5.922-12.739,19.524-12.739a54.031,54.031,0,0,1,23.36,5.034l5.227-15.41c-6.1-2.993-15.513-5.51-28.239-5.51-25.452,0-41.487,13.215-41.487,30.512,0,15.256,12.378,24.538,31.722,30.827,15,4.873,20.92,9.591,20.92,17.612,0,8.651-7.666,14.47-21.435,14.47A64.386,64.386,0,0,1,4.705,212.7L0,228.733Zm185.824,5.021h21.622V123.932H185.824V233.78Zm44.8,0h21.616V123.932H230.626V233.78Zm134.753,0h21.435V194.141a30.2,30.2,0,0,1,.7-5.98c1.918-8.645,8.889-14.625,19.176-14.625a32.85,32.85,0,0,1,6.276.631V155.924a24.9,24.9,0,0,0-28.239,15.887l-1.4-14.631H364.677c.528,6.926.7,14.316.7,24.692v51.9Zm123.765-30.029,10.634,30.035H522.79l-38.172-106H457.242l-37.657,106h22.143l10.106-30.035Zm-33.82-14.631L464.393,163c2.086-6.289,3.837-13.679,5.574-19.813,2.092,6.134,4.01,13.37,6.276,19.813l9.244,26.109H455.323Zm165.271-46.076v14.149h-12.2v14.47h12.2v36.015c0,10.068,2.086,16.987,6.624,21.39,4,3.927,10.634,6.443,18.474,6.443,6.8,0,12.378-.94,15.513-2.041l-.348-14.786a29.065,29.065,0,0,1-8.368.946c-8.188,0-10.982-4.873-10.982-14.155V171.65h20.405V157.192H641.508v-23.6l-20.92,9.45Zm79.143,14.149H678.122v76.594h21.616Zm13.421,0,31.554,76.594h21.094l32.417-76.594H775.566l-13.421,38.847c-2.266,6.92-4.184,12.9-5.755,19.189-2.092-6.289-3.836-12.423-6.276-19.182l-13.775-38.854h-23.18ZM160.733,231.656V217.263c-6.456,2.2-13.6,3.463-23.534,3.463-13.6,0-25.619-5.986-26.147-19.826h56.833a43.656,43.656,0,0,0,.7-8.175c0-16.826-8.89-37.27-36.614-37.27-27.19,0-41.487,19.974-41.487,41.2,0,23.431,16.215,38.847,43.752,38.847a89.57,89.57,0,0,0,26.495-3.843Zm-49.694-44.274c.869-7.86,6.45-18.712,19.7-18.712,14.29,0,17.779,11.638,17.605,18.712Zm229.042,44.287v-14.4c-6.456,2.195-13.595,3.463-23.534,3.463-13.595,0-25.619-5.986-26.147-19.826h56.833a43.105,43.105,0,0,0,.7-8.175c0-16.826-8.883-37.27-36.607-37.27-27.2,0-41.487,19.974-41.487,41.2,0,23.431,16.208,38.847,43.753,38.847a89.6,89.6,0,0,0,26.495-3.843ZM290.4,187.382c.875-7.86,6.45-18.712,19.7-18.712,14.3,0,17.786,11.638,17.612,18.712Zm305.077,29.726a45.913,45.913,0,0,1-16.91,2.987c-14.638,0-25.973-8.96-25.973-24.686-.174-14,9.591-24.847,25.973-24.847a41.189,41.189,0,0,1,16.2,2.987v-15.8a63.6,63.6,0,0,0-16.9-2.3c-29.81,0-47.248,17.934-47.248,40.894,0,23.746,17.264,39.156,43.759,39.156a72.244,72.244,0,0,0,21.094-3.019V217.108Zm278.247,14.561v-14.4c-6.45,2.195-13.589,3.463-23.527,3.463-13.595,0-25.619-5.986-26.147-19.826h56.826a43.175,43.175,0,0,0,.7-8.175c0-16.826-8.89-37.27-36.614-37.27-27.19,0-41.487,19.974-41.487,41.2,0,23.431,16.215,38.847,43.753,38.847A89.57,89.57,0,0,0,873.724,231.669Zm-49.674-44.287c.869-7.86,6.45-18.712,19.7-18.712,14.29,0,17.779,11.638,17.605,18.712Z" fill="#262a25" fill-rule="evenodd"></path></g></g></g></svg> 