<?xml version="1.0" encoding="utf-8"?>
<!-- Generator: Adobe Illustrator 21.0.2, SVG Export Plug-In . SVG Version: 6.00 Build 0)  -->
<svg version="1.1" id="Layer_1" xmlns="http://www.w3.org/2000/svg" xmlns:xlink="http://www.w3.org/1999/xlink" x="0px" y="0px"
	 viewBox="0 0 124 25" style="enable-background:new 0 0 124 25;" xml:space="preserve">
<style type="text/css">
	.st0{fill:#9C5C8F;}
	.st1{fill:#FFFFFF;}
	.st2{fill:#010101;}
</style>
<g>
	<path class="st0" d="M3.9,0h34.2C40.2,0,42,1.8,42,3.9V17c0,2.2-1.8,3.9-3.9,3.9H25.8l1.7,4.1l-7.4-4.1H3.9C1.7,20.9,0,19.1,0,17
		V3.9C0,1.8,1.7,0,3.9,0z"/>
	<path class="st1" d="M2.1,3.5C2.3,3.2,2.7,3.1,3.2,3c0.9-0.1,1.4,0.3,1.5,1.2c0.5,3.6,1.1,6.6,1.7,9.1l3.8-7.2c0.3-0.7,0.8-1,1.3-1
		c0.8-0.1,1.2,0.4,1.4,1.4c0.4,2.3,1,4.2,1.6,5.9c0.4-4.4,1.2-7.5,2.3-9.4c0.3-0.5,0.6-0.7,1.1-0.8c0.4,0,0.8,0.1,1.1,0.3
		c0.3,0.3,0.5,0.6,0.5,1c0,0.3,0,0.6-0.2,0.8c-0.7,1.2-1.2,3.3-1.7,6.2c-0.4,2.8-0.6,5-0.5,6.5c0,0.4,0,0.8-0.2,1.1
		c-0.2,0.4-0.5,0.6-0.9,0.6c-0.4,0-0.9-0.2-1.4-0.6c-1.6-1.6-2.9-4.1-3.8-7.3c-1.1,2.2-1.9,3.9-2.5,4.9c-1,1.9-1.9,2.9-2.6,3
		c-0.5,0-0.9-0.4-1.2-1.2c-0.9-2.3-1.8-6.6-2.8-13C1.8,4.3,1.9,3.9,2.1,3.5z"/>
	<path class="st1" d="M39,6.2c-0.6-1.1-1.5-1.7-2.8-2c-0.3-0.1-0.6-0.1-0.9-0.1c-1.7,0-3,0.9-4,2.6C30.4,8.2,30,9.8,30,11.6
		c0,1.3,0.3,2.5,0.8,3.4c0.6,1.1,1.5,1.7,2.7,2c0.3,0.1,0.6,0.1,0.9,0.1c1.7,0,3-0.9,4-2.6c0.9-1.5,1.3-3.1,1.3-4.9
		C39.8,8.3,39.6,7.2,39,6.2L39,6.2z M36.8,11c-0.2,1.1-0.7,2-1.3,2.5c-0.5,0.4-1,0.6-1.4,0.6c-0.4-0.1-0.8-0.5-1-1.1
		c-0.2-0.5-0.3-1.1-0.3-1.6c0-0.4,0-0.9,0.1-1.3c0.2-0.7,0.5-1.4,0.9-2c0.6-0.8,1.2-1.2,1.8-1.1c0.4,0.1,0.8,0.4,1,1.1
		C36.9,8.7,37,9.2,37,9.7C37,10.2,36.9,10.6,36.8,11L36.8,11z"/>
	<path class="st1" d="M28.2,6.2c-0.6-1.1-1.6-1.7-2.7-2c-0.3-0.1-0.6-0.1-0.9-0.1c-1.7,0-3,0.9-4,2.6c-0.9,1.5-1.3,3.1-1.3,4.8
		c0,1.3,0.3,2.5,0.8,3.4c0.6,1.1,1.5,1.7,2.7,2c0.3,0.1,0.6,0.1,0.9,0.1c1.7,0,3-0.9,4-2.6c0.9-1.5,1.3-3.1,1.3-4.9
		C29.1,8.3,28.8,7.2,28.2,6.2L28.2,6.2z M26.1,11c-0.2,1.1-0.7,2-1.3,2.5c-0.5,0.4-1,0.6-1.4,0.6c-0.4-0.1-0.8-0.5-1-1.1
		c-0.2-0.5-0.3-1.1-0.3-1.6c0-0.4,0-0.9,0.1-1.3c0.2-0.7,0.4-1.4,0.9-2c0.6-0.8,1.2-1.2,1.8-1.1c0.4,0.1,0.8,0.4,1,1.1
		c0.2,0.5,0.3,1.1,0.3,1.6C26.2,10.2,26.2,10.6,26.1,11L26.1,11z"/>
	<g>
		<g>
			<path class="st2" d="M46.3,6.1c-1.2,1.1-1.7,2.6-1.7,4.3c0,1.9,0.6,3.4,1.7,4.6s2.6,1.7,4.4,1.7c0.5,0,1.1-0.1,1.8-0.3v-2.8
				c-0.6,0.2-1.1,0.3-1.6,0.3c-0.9,0-1.6-0.3-2.2-0.9c-0.5-0.6-0.8-1.4-0.8-2.5c0-1,0.3-1.8,0.8-2.4c0.6-0.6,1.2-0.9,2-0.9
				c0.5,0,1.1,0.1,1.7,0.3V4.6c-0.6-0.2-1.2-0.2-1.9-0.2C48.9,4.4,47.5,5,46.3,6.1z M58.3,4.4c-1.6,0-2.8,0.5-3.7,1.6
				c-0.9,1.1-1.3,2.5-1.3,4.4c0,2,0.4,3.6,1.3,4.7c0.9,1.1,2.2,1.6,3.8,1.6c1.6,0,2.9-0.6,3.8-1.6c0.9-1.1,1.3-2.6,1.3-4.6
				S63,7,62.1,6C61.2,4.9,59.9,4.4,58.3,4.4z M59.6,13.3c-0.3,0.5-0.8,0.7-1.4,0.7c-0.6,0-1-0.2-1.3-0.7c-0.3-0.5-0.4-1.4-0.4-2.9
				c0-2.2,0.6-3.4,1.7-3.4c1.2,0,1.8,1.1,1.8,3.4C60.1,11.9,59.9,12.8,59.6,13.3z M72,4.7l-0.6,2.6C71.2,8,71,8.7,70.9,9.4l-0.3,1.8
				c-0.3-1.8-0.8-4-1.3-6.5h-4l-1.5,11.7h3l0.8-8.1l2,8.1h2.1l2-8l0.8,8h3.1L76.1,4.7H72z M86.3,4.7l-0.6,2.6
				c-0.2,0.7-0.3,1.4-0.5,2.1l-0.3,1.8c-0.3-1.8-0.8-4-1.3-6.5h-4L78,16.4h3l0.8-8.1l2,8.1H86l1.9-8l0.8,8h3.1L90.3,4.7H86.3z
				 M96,11.8h2.8V9.4H96V7.2h3.2V4.7h-6.4v11.7h6.4v-2.5H96L96,11.8L96,11.8z M108.1,9.9c0.3-0.5,0.5-1.1,0.5-1.6
				c0-1.1-0.4-2-1.3-2.6c-0.9-0.6-2-1-3.5-1h-3.7v11.7h3.2v-5.3h0.1l2.6,5.3h3.3l-2.5-5.3C107.3,10.9,107.8,10.5,108.1,9.9z
				 M103.3,9.8V7c0.8,0,1.3,0.1,1.6,0.4c0.3,0.2,0.5,0.6,0.5,1.2C105.4,9.3,104.7,9.7,103.3,9.8z M110.5,6.1
				c-1.2,1.1-1.7,2.6-1.7,4.3c0,1.9,0.6,3.4,1.7,4.6c1.1,1.2,2.6,1.7,4.4,1.7c0.5,0,1.1-0.1,1.8-0.3v-2.8c-0.6,0.2-1.1,0.3-1.6,0.3
				c-0.9,0-1.6-0.3-2.2-0.9c-0.5-0.6-0.8-1.4-0.8-2.5c0-1,0.3-1.8,0.8-2.4c0.6-0.6,1.2-0.9,2-0.9c0.5,0,1.1,0.1,1.7,0.3V4.6
				c-0.6-0.2-1.2-0.2-1.9-0.2C113.1,4.4,111.6,5,110.5,6.1z M120.7,13.9v-2.1h2.8V9.4h-2.8V7.2h3.2V4.7h-6.4v11.7h6.4v-2.5
				L120.7,13.9C120.7,13.9,120.7,13.9,120.7,13.9z"/>
		</g>
	</g>
</g>
</svg>
