<svg xmlns="http://www.w3.org/2000/svg" xmlns:xlink="http://www.w3.org/1999/xlink" version="1.1" x="0px" y="0px" width="300px" height="86.592px" viewBox="0 0 300 86.592" enable-background="new 0 0 300 86.592" xml:space="preserve"><style>.style0{fill-rule:	evenodd;clip-rule:	evenodd;fill:	#F8991D;}.style1{clip-rule:	evenodd;fill-rule:	evenodd;}</style><g><path d="M178.433 67.607c-2.007 1.543-4.168 2.934-6.329 4.167v-6.482 c1.234-0.463 2.624-1.081 3.858-1.543C178.741 62.513 181.212 65.601 178.433 67.607L178.433 67.607z M193.096 56.803 c0-1.236-0.308-2.161-0.618-2.625c-1.389-1.698-11.576-3.241-20.374-0.618v4.785c5.403-0.462 11.73-0.617 13.274 1.39 c2.16 2.624-2.47 14.046-4.477 18.985c-0.618 1.543 0.772 2.161 2.161 1.081c6.946-5.866 9.877-16.517 10.032-22.073V56.803z M172.104 71.774c-16.207 9.724-37.2 14.818-55.414 14.818c-29.327 0-55.567-10.804-75.479-28.863 c-1.698-1.389-0.309-3.396 1.698-2.315c21.456 12.503 48.004 20.065 75.479 20.065c17.287 0 35.964-3.24 53.715-10.187V71.774 L172.104 71.774z M172.104 53.561c-2.471 0.772-4.631 1.853-6.638 3.242c-1.543 1.08-1.234 2.469 0.309 2.315 c1.698-0.309 3.858-0.463 6.329-0.772V53.561z" class="style0"/><path d="M295.369 10.496V9.725c2.16 0 3.858-1.698 3.858-3.859s-1.852-3.858-3.858-3.858 V1.236l0 0c2.469 0 4.631 2.006 4.631 4.63C300 8.335 297.838 10.496 295.369 10.496L295.369 10.496L295.369 10.496z M295.369 6.329h0.153c0.31 0 0.464 0.154 0.464 0.463c0 0.155 0.154 1.389 0.309 1.698h1.08c-0.155-0.309-0.309-0.925-0.309-1.39 c-0.155-0.618-0.155-1.08-0.926-1.234c0.463-0.154 1.08-0.309 1.08-1.234c0-1.389-1.234-1.389-1.852-1.389l0 0v0.772l0 0 c0.309 0 0.771 0 0.771 0.771c0 0.309-0.154 0.771-0.771 0.771l0 0V6.329z M295.369 1.236v0.771l0 0 c-2.161 0-4.014 1.697-4.014 3.858s1.853 3.859 4.014 3.859l0 0v0.771c-2.625 0-4.785-2.006-4.785-4.63 C290.584 3.242 292.745 1.236 295.369 1.236L295.369 1.236z M295.369 3.242h-1.853V8.49l0 0h1.081V6.329h0.772V5.557h-0.772V4.014 h0.772V3.242L295.369 3.242z M224.12 51.091v-9.26c6.639-0.156 6.947-9.725 6.947-15.437c0-3.858-0.155-8.489-1.39-12.194 c-0.926-3.087-2.777-4.322-5.558-4.476V0.463c12.967 0.155 20.067 11.422 20.067 25.778 C244.187 40.132 236.315 50.937 224.12 51.091L224.12 51.091z M261.32 50.165h-8.798c-0.926-0.154-1.698-0.771-1.698-1.698V2.933 c0.155-0.926 0.772-1.543 1.698-1.543h8.336c0.771 0 1.389 0.618 1.543 1.389v6.946h0.154c2.469-6.329 6.02-9.262 12.193-9.262 c3.858 0 7.872 1.39 10.342 5.403c2.314 3.704 2.314 9.724 2.314 14.2v28.556c-0.153 0.772-0.771 1.543-1.697 1.543h-8.952 c-0.771-0.154-1.544-0.771-1.544-1.543V24.079c0-5.094 0.617-12.348-5.556-12.348c-2.161 0-4.167 1.389-5.249 3.705 c-1.234 2.778-1.388 5.556-1.388 8.643v24.388C263.018 49.394 262.246 50.165 261.32 50.165z M166.238 9.416V2.933 c0-0.926 0.772-1.697 1.698-1.697h29.173c0.925 0 1.698 0.771 1.698 1.697V8.49c0 0.926-0.772 2.161-2.162 4.168L181.52 34.266 c5.557-0.153 11.576 0.772 16.67 3.551c1.08 0.771 1.389 1.697 1.543 2.624v6.792c0 0.925-1.08 2.007-2.16 1.543 c-9.107-4.785-20.992-5.248-30.871 0c-1.08 0.618-2.161-0.618-2.161-1.543v-6.483c0-0.926 0-2.779 1.081-4.476l17.596-25.16 h-15.281C167.011 11.113 166.238 10.496 166.238 9.416L166.238 9.416z M224.12 0.463v9.262l0 0c-6.636 0-6.945 8.952-6.945 14.509 c0 5.711-0.154 17.597 6.792 17.597c0.153 0 0.153 0 0.153 0v9.26c0 0 0 0-0.153 0c-12.966 0-20.065-11.268-20.065-25.314 c0-14.201 7.253-25.314 20.065-25.314C224.12 0.463 224.12 0.463 224.12 0.463L224.12 0.463z M136.294 50.011v-8.18 c2.006-0.464 3.705-1.853 4.939-4.013c1.698-3.087 1.698-5.866 1.698-9.416V26.55c-2.315 0-4.631 0.154-6.637 0.617v-7.101 c2.315-0.309 4.631-0.463 6.637-0.617v-1.235c0-2.161 0.154-4.631-1.081-6.482c-1.081-1.544-3.241-2.316-5.093-2.316 c-0.155 0-0.31 0-0.463 0V0c0.618 0 1.235 0 1.853 0c4.321 0 9.878 1.236 13.274 4.477c4.322 4.013 4.012 9.415 4.012 15.28V33.65 c0 4.167 1.698 6.019 3.242 8.181c0.618 0.771 0.772 1.697 0 2.314c-1.697 1.544-4.939 4.322-6.792 5.866l0 0 c-0.617 0.463-1.389 0.463-2.16 0.154c-2.933-2.47-3.396-3.55-5.093-5.866C141.697 47.387 139.227 49.084 136.294 50.011z M136.294 0v9.416c-3.243 0.309-5.865 2.007-6.638 5.402c-0.153 0.772-0.771 1.543-1.543 1.698l-8.644-1.08 c-0.771-0.155-1.542-0.618-1.234-1.853C120.087 3.859 128.268 0.463 136.294 0L136.294 0z M136.294 20.066v7.101 c-3.705 1.081-6.638 3.395-6.638 8.335c0 3.858 2.007 6.483 5.403 6.483c0.463 0 0.773-0.154 1.235-0.154v8.18 c-1.853 0.463-3.859 0.771-6.329 0.771c-7.409 0-13.275-4.63-13.275-13.737c0-7.255 3.859-12.194 9.416-14.509 C129.04 21.147 132.743 20.529 136.294 20.066L136.294 20.066z M19.603 50.011v-8.18c2.007-0.464 3.86-1.853 4.94-4.013 c1.851-3.087 1.697-5.866 1.697-9.416l0 0V26.55c-2.315 0-4.63 0.154-6.638 0.617v-7.101c2.316-0.309 4.631-0.463 6.638-0.617 v-1.235c0-2.161 0.154-4.631-1.08-6.482c-1.08-1.544-3.088-2.316-4.939-2.316c-0.31 0-0.462 0-0.618 0V0c0.618 0 1.236 0 1.853 0 c4.322 0 9.879 1.236 13.428 4.477c4.322 4.013 3.86 9.415 3.86 15.28V33.65c0 4.167 1.697 6.019 3.395 8.181 c0.462 0.771 0.618 1.697-0.155 2.314c-1.698 1.544-4.938 4.322-6.791 5.866l0 0c-0.618 0.463-1.389 0.463-2.161 0.154 c-2.933-2.47-3.396-3.55-5.093-5.866C25.005 47.387 22.536 49.084 19.603 50.011L19.603 50.011z M59.58 50.165h-8.952 c-0.927-0.154-1.544-0.771-1.544-1.543V3.087c0-0.926 0.774-1.698 1.699-1.698h8.18c0.927 0 1.698 0.771 1.698 1.543v6.02h0.155 c2.162-5.866 6.174-8.49 11.732-8.49c5.555 0 9.105 2.625 11.576 8.49c2.16-5.866 6.945-8.49 12.194-8.49 c3.858 0 7.872 1.544 10.341 4.94c2.779 3.859 2.315 9.415 2.315 14.354v28.709c0 0.927-0.771 1.698-1.852 1.698h-8.798 c-0.926-0.154-1.544-0.771-1.544-1.698V24.388c0-1.852 0.155-6.792-0.309-8.489c-0.618-3.087-2.624-4.014-5.248-4.014 c-2.161 0-4.322 1.389-5.248 3.705c-0.925 2.315-0.925 6.174-0.925 8.798v24.079c0 0.927-0.773 1.698-1.698 1.698h-8.954 c-0.771-0.154-1.542-0.771-1.542-1.698V24.388c0-5.093 0.772-12.656-5.402-12.656c-6.482 0-6.176 7.409-6.176 12.656v24.079 C61.277 49.394 60.507 50.165 59.58 50.165z M19.603 0v9.416c-3.086 0.309-5.865 2.007-6.636 5.402 c-0.155 0.772-0.617 1.543-1.544 1.698l-8.644-1.08c-0.617-0.155-1.543-0.618-1.234-1.853C3.396 3.859 11.731 0.463 19.603 0 L19.603 0z M19.603 20.066v7.101c-3.705 1.081-6.636 3.395-6.636 8.335c0 3.858 2.006 6.483 5.402 6.483 c0.462 0 0.925-0.154 1.234-0.154v8.18c-1.852 0.463-3.858 0.771-6.327 0.771C5.866 50.782 0 46.152 0 37.045 c0-7.255 3.859-12.194 9.571-14.509C12.502 21.147 16.054 20.529 19.603 20.066z" class="style1"/></g></svg>