<?xml version="1.0" encoding="utf-8"?>
<!-- Generator: Adobe Illustrator 23.1.0, SVG Export Plug-In . SVG Version: 6.00 Build 0)  -->
<svg version="1.1" id="Layer_1" xmlns="http://www.w3.org/2000/svg" xmlns:xlink="http://www.w3.org/1999/xlink" x="0px" y="0px"
	 viewBox="0 0 111.1 25" style="enable-background:new 0 0 111.1 25;" xml:space="preserve">
<style type="text/css">
	.st0{fill:#34313F;}
</style>
<g>
	<path class="st0" d="M30.5,12.1c1.7,0,2.8,0.8,3.5,1.7V0.3C34,0,33.7-0.1,33.5,0L16.9,12.3h0.4c1.7,0,2.6,1.1,2.6,2.3
		c0,0.9-0.5,1.6-1.2,1.9c-0.1,0-0.1,0.2,0,0.3c0.8,0.3,1.3,1.1,1.3,2.1c0,1.4-0.9,2.5-2.6,2.5h-4.7c-0.1,0-0.2-0.1-0.2-0.2v-5.7
		l-12.4,9C-0.1,24.7,0,25,0.3,25h33.5c0.2,0,0.3-0.1,0.3-0.3v-4.6c-0.9,0.8-2.1,1.4-3.5,1.4c-2.7,0-4.9-1.8-4.9-4.7
		C25.7,13.9,27.9,12.1,30.5,12.1z M23.9,21.2c0,0.1-0.1,0.2-0.2,0.2h-1.6c-0.1,0-0.2-0.1-0.2-0.2v-8.8c0-0.1,0.1-0.2,0.2-0.2h1.6
		c0.1,0,0.2,0.1,0.2,0.2V21.2z"/>
	<path class="st0" d="M14.7,15.9h2.2c0.6,0,1.1-0.4,1.1-0.9c0-0.6-0.4-0.9-1.1-0.9h-2.3c0,0-0.1,0-0.1,0.1v1.6
		C14.5,15.8,14.6,15.9,14.7,15.9z"/>
	<path class="st0" d="M14.7,19.7H17c0.7,0,1.2-0.4,1.2-1s-0.4-1-1.2-1h-2.3c-0.1,0-0.2,0.1-0.2,0.2v1.6
		C14.5,19.6,14.6,19.7,14.7,19.7z"/>
	<path class="st0" d="M32.6,14.9c-0.4-0.6-1.2-1-2.1-1c-1.7,0-2.9,1.3-2.9,3s1.2,3,2.9,3c0.8,0,1.5-0.3,1.9-0.6v-0.1v-0.9
		c0-0.1-0.1-0.1-0.1-0.1h-2.1c-0.1,0-0.2-0.1-0.2-0.2v-1.5c0-0.1,0.1-0.2,0.2-0.2H34v-2.1l-1.2,0.7C32.8,15,32.6,14.9,32.6,14.9z"/>
	<path class="st0" d="M35.5,16.8c0-2.8,2-4.7,4.6-4.7c1.7,0,2.8,0.9,3.4,1.9c0,0.1,0,0.2-0.1,0.2l-1,0.6c-0.1,0-0.2,0-0.2,0
		c-0.4-0.8-1.2-1.3-2.1-1.3c-1.7,0-3,1.4-3,3.3s1.3,3.3,3,3.3c0.9,0,1.7-0.5,2.1-1.2c0-0.1,0.1-0.1,0.2,0l1,0.5
		c0.1,0,0.1,0.1,0.1,0.2c-0.7,1-1.8,1.9-3.4,1.9C37.5,21.5,35.5,19.6,35.5,16.8z"/>
	<path class="st0" d="M44.4,16.8c0-2.3,1.3-4,3.2-4.5c3.3-0.9,6.3,2.2,5.6,5.7c-0.4,2.1-2.1,3.6-4.4,3.6
		C46.3,21.5,44.4,19.5,44.4,16.8z M51.8,16.8c0-1.9-1.2-3.3-2.9-3.3c-1.8,0-2.9,1.4-2.9,3.3s1.1,3.3,2.9,3.3S51.8,18.7,51.8,16.8z"
		/>
	<path class="st0" d="M62.8,21.2v-6.9l-2.8,7c0,0,0,0-0.1,0h-0.6h-0.1l-2.8-7v6.9c0,0.1,0,0.1-0.1,0.1H55c-0.1,0-0.1,0-0.1-0.1v-8.9
		c0-0.1,0-0.1,0.1-0.1h2c0.1,0,0.2,0,0.2,0.1l2.4,6.2l2.4-6.2c0-0.1,0.1-0.1,0.2-0.1h2c0.1,0,0.1,0,0.1,0.1v8.9c0,0.1,0,0.1-0.1,0.1
		h-1.4C62.9,21.3,62.8,21.3,62.8,21.2z"/>
	<path class="st0" d="M78.5,21.2v-8.8c0-0.1,0.1-0.2,0.2-0.2h5.9c0.1,0,0.2,0.1,0.2,0.2v1.1c0,0.1-0.1,0.2-0.2,0.2h-4.3
		c-0.1,0-0.2,0.1-0.2,0.2v2c0,0.1,0.1,0.2,0.2,0.2h4.2c0.1,0,0.2,0.1,0.2,0.2v1.1c0,0.1-0.1,0.2-0.2,0.2h-4.2
		c-0.1,0-0.2,0.1-0.2,0.2V20c0,0.1,0.1,0.2,0.2,0.2h4.3c0.1,0,0.2,0.1,0.2,0.2v1.1c0,0.1-0.1,0.2-0.2,0.2h-5.9
		C78.6,21.3,78.5,21.3,78.5,21.2z"/>
	<path class="st0" d="M92.1,21.3l-1.9-3.2L90.1,18h-1.3c-0.1,0-0.2,0.1-0.2,0.2v3.1c0,0.1-0.1,0.2-0.2,0.2h-1.2
		c-0.1,0-0.2-0.1-0.2-0.2v-8.8c0-0.1,0.1-0.2,0.2-0.2H91c1.8,0,3,1.2,3,2.8c0,1.5-0.9,2.4-1.9,2.6c-0.1,0-0.2,0.1-0.1,0.3
		c0.4,0.6,1.5,2.4,2,3.1c0.1,0.1,0,0.3-0.1,0.3h-1.5C92.2,21.3,92.2,21.3,92.1,21.3z M92.3,15.1c0-0.9-0.6-1.4-1.6-1.4h-2
		c-0.1,0-0.2,0.1-0.2,0.2v2.6c0,0.1,0.1,0.2,0.2,0.2h2C91.7,16.5,92.3,16,92.3,15.1z"/>
	<path class="st0" d="M104.8,21.2v-8.8c0-0.1,0.1-0.2,0.2-0.2h5.9c0.1,0,0.2,0.1,0.2,0.2v1.1c0,0.1-0.1,0.2-0.2,0.2h-4.3
		c-0.1,0-0.2,0.1-0.2,0.2v2c0,0.1,0.1,0.2,0.2,0.2h4.2c0.1,0,0.2,0.1,0.2,0.2v1.1c0,0.1-0.1,0.2-0.2,0.2h-4.2
		c-0.1,0-0.2,0.1-0.2,0.2V20c0,0.1,0.1,0.2,0.2,0.2h4.3c0.1,0,0.2,0.1,0.2,0.2v1.1c0,0.1-0.1,0.2-0.2,0.2H105
		C104.8,21.3,104.8,21.3,104.8,21.2z"/>
	<path class="st0" d="M95.1,16.8c0-2.8,2-4.7,4.6-4.7c1.7,0,2.8,0.9,3.4,1.9c0,0.1,0,0.2-0.1,0.2l-1,0.6c-0.1,0-0.2,0-0.2,0
		c-0.4-0.7-1.2-1.2-2.1-1.2c-1.7,0-3,1.4-3,3.3s1.3,3.3,3,3.3c0.9,0,1.7-0.5,2.1-1.2c0-0.1,0.1-0.1,0.2,0l1,0.5
		c0.1,0,0.1,0.1,0.1,0.2c-0.7,1-1.8,1.9-3.4,1.9C97.1,21.5,95.1,19.6,95.1,16.8z"/>
	<path class="st0" d="M74.6,21.2v-6.9l-2.8,7c0,0,0,0-0.1,0h-0.6H71l-2.8-7v6.9c0,0.1,0,0.1-0.1,0.1h-1.4c-0.1,0-0.1,0-0.1-0.1v-8.9
		c0-0.1,0-0.1,0.1-0.1h2c0.1,0,0.2,0,0.2,0.1l2.4,6.2l2.4-6.2c0-0.1,0.1-0.1,0.2-0.1h2c0.1,0,0.1,0,0.1,0.1v8.9c0,0.1,0,0.1-0.1,0.1
		h-1.4C74.6,21.3,74.6,21.3,74.6,21.2z"/>
</g>
</svg>
