<svg xmlns="http://www.w3.org/2000/svg" xmlns:xlink="http://www.w3.org/1999/xlink" version="1.1" x="0px" y="0px" width="300.001px" height="120.124px" viewBox="0 0 300.001 120.124" enable-background="new 0 0 300.001 120.124" xml:space="preserve"><style>.style0{fill:	#E53238;}.style1{fill:	#0064D2;}.style2{fill:	#F5AF02;}.style3{fill:	#86B817;}</style><g><path d="M38.792 26.186C17.632 26.19 0 35.16 0 62.245c0 21.46 11.86 34.97 39.34 34.97 c32.348 0 34.421-21.308 34.421-21.308H58.086c0 0-3.36 11.474-19.704 11.474c-13.311 0-22.884-8.992-22.884-21.595h59.901v-7.91 C75.399 45.41 67.48 26.19 38.79 26.186z M38.246 36.294c12.671 0 21.31 7.76 21.31 19.396H15.845 C15.845 43.34 27.12 36.29 38.25 36.294z" class="style0"/><path d="M75.389-0.04v83.652c0 4.748-0.339 11.416-0.339 11.416h14.949c0 0 0.537-4.788 0.537-9.165 c0 0 7.39 11.56 27.47 11.556c21.149 0 35.514-14.685 35.514-35.72c0-19.57-13.194-35.309-35.479-35.309 c-20.868 0-27.352 11.268-27.352 11.268V-0.04H75.389z M114.18 36.737c14.362 0 23.49 10.66 23.49 24.96 c0 15.339-10.547 25.372-23.392 25.372c-15.328 0-23.596-11.969-23.596-25.235C90.687 49.47 98.11 36.74 114.18 36.737z" class="style1"/><path d="M190.672 26.186c-31.833 0-33.874 17.431-33.874 20.215h15.844c0 0 0.831-10.176 16.938-10.176 c10.466 0 18.58 4.79 18.58 14.001v3.278h-18.577c-24.661 0-37.699 7.214-37.699 21.854c0 14.41 12.05 22.25 28.33 22.25 c22.187 0 29.334-12.26 29.334-12.26c0 4.88 0.38 9.68 0.38 9.682h14.086c0 0-0.547-5.956-0.547-9.767V52.326 C223.454 30.73 206.03 26.19 190.67 26.186L190.672 26.186z M208.156 63.339v4.37c0 5.701-3.519 19.875-24.229 19.88 c-11.341 0-16.203-5.66-16.203-12.226C167.725 63.41 184.1 63.34 208.16 63.339L208.156 63.339z" class="style2"/><path d="M214.922 28.919h17.826l25.582 51.251l25.522-51.251h16.148l-46.49 91.245h-16.938l13.415-25.436 L214.922 28.919z" class="style3"/></g></svg>