<?xml version="1.0" encoding="utf-8"?>
<!-- Generator: Adobe Illustrator 16.0.4, SVG Export Plug-In . SVG Version: 6.00 Build 0)  -->
<!DOCTYPE svg PUBLIC "-//W3C//DTD SVG 1.1//EN" "http://www.w3.org/Graphics/SVG/1.1/DTD/svg11.dtd">
<svg version="1.1" id="Layer_1" xmlns="http://www.w3.org/2000/svg" xmlns:xlink="http://www.w3.org/1999/xlink" x="0px" y="0px"
	 width="106px" height="50px" viewBox="0 0 106 50" enable-background="new 0 0 106 50" xml:space="preserve">
<g>
	<path fill="#D56627" d="M10.685,9.272c1.417,0.017,2.834,0.04,4.25,0.049c5.267,0.03,10.534,0.082,15.8,0.066
		c1.439-0.004,2.877-0.218,4.316-0.333c0.322-0.024,0.644-0.035,1.05-0.056c-0.175,2.881-0.348,5.703-0.527,8.631
		c-0.46,0-0.895,0.033-1.32-0.021c-0.131-0.017-0.29-0.251-0.34-0.416c-0.331-1.089-0.577-2.208-0.958-3.278
		c-0.729-2.043-1.529-2.563-3.697-2.563c-2.798,0-5.596-0.003-8.394,0.001c-0.965,0.001-1.105,0.143-1.105,1.079
		c-0.003,3.404,0.01,6.808-0.013,10.212c-0.004,0.569,0.146,0.79,0.74,0.759c1.976-0.102,3.953-0.166,5.93-0.249
		c0.975-0.042,1.534-0.578,1.759-1.502c0.183-0.746,0.408-1.483,0.536-2.238c0.092-0.543,0.314-0.775,0.872-0.711
		c0.338,0.039,0.684,0.008,0.934,0.008c0,3.703,0,7.301,0,10.987c-0.53,0-0.997,0.048-1.445-0.023
		c-0.17-0.027-0.372-0.301-0.431-0.501c-0.184-0.623-0.289-1.269-0.457-1.897c-0.331-1.231-0.983-1.76-2.247-1.799
		c-1.839-0.059-3.68-0.078-5.519-0.146c-0.528-0.019-0.675,0.162-0.671,0.679c0.021,2.937,0.001,5.876,0.014,8.813
		c0.006,1.743,0.842,2.693,2.573,2.73c2.725,0.056,5.456,0.067,8.18-0.021c1.86-0.061,3.073-1.195,3.829-2.837
		c0.448-0.971,0.866-1.956,1.294-2.937c0.512-1.172,0.511-1.172,1.934-0.977c-0.355,2.967-0.711,5.935-1.076,8.986
		c-8.626,0-17.218,0-25.811,0c0-0.56,0-1.119,0-1.68c0.933-0.184,1.871-0.344,2.797-0.558c1.115-0.256,1.53-0.786,1.561-1.902
		c0.039-1.394,0.099-2.787,0.107-4.183c0.022-3.583,0.04-7.166,0.024-10.749c-0.011-2.396-0.075-4.79-0.129-7.184
		c-0.026-1.136-0.363-1.732-1.23-1.952c-1.028-0.261-2.084-0.412-3.129-0.61C10.685,10.391,10.685,9.832,10.685,9.272z"/>
	<path fill="#D56627" d="M95.315,20.743c-3.07,1.211-2.607,0.792-3.921,3.873c-2.124,4.987-4.199,9.996-6.338,14.977
		c-1.078,2.516-2.398,4.894-4.401,6.821c-1.36,1.312-2.932,2.205-4.831,2.456c-0.084,0.01-0.155,0.083-0.233,0.13
		c-0.839,0-1.678,0-2.518,0c-0.84-0.251-1.686-0.487-2.521-0.756c-0.57-0.183-0.729-0.503-0.567-1.161
		c0.367-1.486,0.615-3.005,0.863-4.519c0.065-0.408,0.198-0.581,0.602-0.565c0.208,0.008,0.422-0.004,0.626-0.046
		c0.445-0.089,0.625,0.093,0.699,0.53c0.151,0.918,0.328,1.831,0.533,2.738c0.231,1.02,0.731,1.422,1.774,1.414
		c1.571-0.014,2.873-0.698,4.009-1.729c1.189-1.077,2.078-2.385,2.786-3.814c0.096-0.195,0.102-0.507,0.018-0.711
		c-2.389-5.882-4.79-11.757-7.198-17.632c-0.296-0.721-0.684-1.354-1.504-1.637c-1.112-0.381-1.103-0.416-0.889-1.653
		c3.342,0,6.682,0,10.147,0c0,0.287,0.043,0.632-0.019,0.957c-0.032,0.166-0.228,0.373-0.396,0.432
		C81.6,21,81.124,21.044,80.688,21.196c-0.897,0.314-1.284,0.99-0.966,1.863c1.497,4.107,3.028,8.2,4.551,12.297
		c0.022,0.059,0.088,0.102,0.186,0.216c0.117-0.225,0.228-0.411,0.311-0.608c1.6-3.816,3.205-7.632,4.791-11.457
		c0.442-1.065,0.107-1.788-0.971-2.228c-0.151-0.061-0.31-0.107-0.463-0.159c-1.18-0.39-1.18-0.39-0.994-1.777
		c2.717,0,5.451,0,8.184,0C95.315,19.81,95.315,20.276,95.315,20.743z"/>
	<path fill="#D56627" d="M56.435,33.169c0.165-0.05,0.209-0.072,0.253-0.074c1.231-0.074,1.229-0.074,1.676,1.084
		c0.259,0.674,0.505,1.35,0.793,2.014c1.011,2.32,4.699,3.174,6.644,1.546c1.439-1.202,1.39-3.617-0.187-4.916
		c-0.729-0.599-1.598-1.039-2.44-1.475c-1.012-0.525-2.085-0.93-3.093-1.457c-1.754-0.918-3.198-2.138-3.483-4.25
		c-0.458-3.378,1.199-5.763,4.542-6.521c2.748-0.625,5.462-0.267,8.152,0.408c0.338,0.084,0.476,0.24,0.435,0.637
		c-0.147,1.389-0.225,2.786-0.372,4.173c-0.021,0.193-0.289,0.502-0.452,0.509c-0.406,0.017-0.956,0.372-1.198-0.278
		c-0.242-0.653-0.5-1.31-0.648-1.988c-0.284-1.318-1.156-1.963-2.401-2.043c-0.909-0.059-1.883-0.041-2.745,0.215
		c-1.949,0.581-2.56,2.724-1.193,4.231c0.634,0.702,1.515,1.22,2.359,1.682c1.224,0.669,2.535,1.174,3.773,1.815
		c1.612,0.834,3.031,1.934,3.5,3.785c0.805,3.173-0.41,5.992-3.75,7.2c-3.328,1.203-6.606,0.597-9.853-0.415
		c-0.131-0.04-0.295-0.246-0.298-0.375C56.429,36.848,56.435,35.013,56.435,33.169z"/>
	<path fill="#D56627" d="M42.191,21.989c-1.26,0-2.442,0-3.64,0c-0.042-0.179-0.081-0.309-0.102-0.441
		c-0.11-0.688,0.077-1.049,0.87-1.206c2.55-0.505,3.943-2.302,4.792-4.61c0.224-0.608,0.407-1.242,0.513-1.88
		c0.084-0.517,0.33-0.649,0.797-0.604c0.317,0.03,0.642,0.005,1.038,0.005c0,2.166,0,4.249,0,6.314c2.184,0,4.292,0,6.51,0
		c-0.091,0.85-0.186,1.733-0.286,2.667c-2.085-0.15-4.096-0.294-6.219-0.447c0,0.308,0,0.554,0,0.8
		c0,3.496-0.008,6.992,0.006,10.486c0.003,0.673,0.046,1.354,0.16,2.015c0.364,2.108,1.85,3.047,3.872,2.358
		c0.832-0.281,1.566-0.844,2.4-1.309c0.845,0.703,0.894,1.008,0.071,1.957c-1.409,1.626-3.295,2.099-5.344,2.084
		c-0.6-0.005-1.216-0.072-1.794-0.225c-2.293-0.601-3.634-2.425-3.64-4.927c-0.012-4.032-0.003-8.063-0.003-12.095
		C42.191,22.653,42.191,22.373,42.191,21.989z"/>
</g>
</svg>
