<svg xmlns="http://www.w3.org/2000/svg" width="100" height="41" viewBox="0 184.03 100 40.82"><style>.a{fill:#8200FF;stroke-width:0.005;stroke:#000;}.b{fill:#8200FF;stroke-linejoin:round;stroke-width:0.01;stroke:#000;}</style><path d="M0.45 207.75v2.6c0 8.65 6.02 14.5 14.51 14.5 8.6 0 14.57-5.95 14.57-14.55v-13.8h-8.47v14.3c0 3.13-2.04 6.03-6.07 6.03 -3.83 0-6.05-2.67-6.05-6.02v-3.05H0.45z" class="a"/><path d="M50.33 190.2c-9.06 0-16.95 7.54-16.95 17.4 0 9.42 7.51 17.25 16.97 17.25 7.17 0 13.87-3.7 15.96-11.3h-9.05c-1.11 2.11-3.43 3.85-7 3.85 -4.41 0-7.44-3.04-8.24-6.55h24.94l0.12-2.56C67.07 196.68 59.32 190.2 50.33 190.2L50.33 190.2zM50.28 197.65c4.02 0 7.3 2.51 8.26 6.3H42.1C43 200.96 45.7 197.65 50.28 197.65z" style="fill:#8200FF;stroke-linejoin:round;stroke-width:0.005;stroke:#000"/><path d="M100 207.6v2.75c0 8.65-6.01 14.5-14.51 14.5 -8.6 0-14.57-5.95-14.57-14.55v-24.6h8.48v7.05h12.13v7.95H79.4v10.1c0 3.13 2.04 6.03 6.07 6.03 3.83 0 6.05-2.67 6.05-6.02v-3.2H100z" class="a"/><path d="M29.97 188.71c0 2.59-2.1 4.69-4.69 4.69 -2.59 0-4.69-2.1-4.69-4.69s2.1-4.69 4.69-4.69C27.87 184.03 29.97 186.12 29.97 188.71z" class="b"/><path d="M9.37 188.71c0 2.59-2.1 4.69-4.69 4.69 -2.59 0-4.69-2.1-4.69-4.69s2.1-4.69 4.69-4.69C7.27 184.03 9.37 186.12 9.37 188.71z" class="b"/></svg>