<?xml version="1.0" encoding="utf-8"?>
<!-- Generator: Adobe Illustrator 21.0.2, SVG Export Plug-In . SVG Version: 6.00 Build 0)  -->
<svg version="1.1" id="Layer_1" xmlns="http://www.w3.org/2000/svg" xmlns:xlink="http://www.w3.org/1999/xlink" x="0px" y="0px"
	 viewBox="0 0 87.4 35" style="enable-background:new 0 0 87.4 35;" xml:space="preserve">
<style type="text/css">
	.st0{fill:url(#SVGID_1_);}
	.st1{fill:#FFFFFF;}
	.st2{fill:url(#SVGID_2_);}
	.st3{fill:url(#SVGID_3_);}
	.st4{fill:#253F70;}
	.st5{fill:none;stroke:#253F70;stroke-width:0.2482;}
</style>
<g>
	
		<radialGradient id="SVGID_1_" cx="-14.3078" cy="14.8254" r="33.6771" gradientTransform="matrix(0.4882 -4.198805e-03 -4.198805e-03 -0.4882 23.7336 24.8015)" gradientUnits="userSpaceOnUse">
		<stop  offset="0.2708" style="stop-color:#FFFFFF"/>
		<stop  offset="0.5087" style="stop-color:#F8F8F9"/>
		<stop  offset="0.736" style="stop-color:#EBEBED"/>
		<stop  offset="0.9585" style="stop-color:#D7D9DE"/>
		<stop  offset="1" style="stop-color:#D2D5DB"/>
	</radialGradient>
	<path class="st0" d="M4,11.5C-0.8,19.1,0.7,28.7,7.5,33c6.7,4.2,16.1,1.5,20.9-6.1c4.8-7.6,5.6-21-1.1-25.2
		C20.5-2.6,8.8,3.8,4,11.5z"/>
	<path class="st1" d="M16.6,11.3C20.2,5.6,27.6,0.6,34,0.2c-6.6-0.3-15,5-18.8,11.2c-4.8,7.6-3.3,17.3,3.5,21.5
		c2.4,1.5,5.1,2.1,7.9,2c-2.2-0.1-4.4-0.7-6.4-2C13.3,28.6,11.7,19,16.6,11.3z"/>
	
		<radialGradient id="SVGID_2_" cx="11.4178" cy="14.8306" r="33.6737" gradientTransform="matrix(0.4882 -4.198805e-03 -4.198805e-03 -0.4882 23.7336 24.8015)" gradientUnits="userSpaceOnUse">
		<stop  offset="0.19" style="stop-color:#FDE92B"/>
		<stop  offset="0.4908" style="stop-color:#F7C834"/>
		<stop  offset="1" style="stop-color:#EF8B38"/>
	</radialGradient>
	<path class="st2" d="M39.8,1.5C38.1,0.4,36.1,0,34,0.2c-6.3,0.4-13.8,5.5-17.4,11.2C11.7,19,13.3,28.6,20,32.9c2,1.2,4.2,1.9,6.4,2
		c5.4,0.2,11.1-2.7,14.5-8.1C45.8,19.1,46.6,5.7,39.8,1.5z"/>
	<path class="st1" d="M29.5,11.2C33.1,5.5,40.6,0.5,46.9,0.1c-6.6-0.3-15,5-18.8,11.2c-4.8,7.6-3.3,17.3,3.5,21.5
		c2.4,1.5,5.1,2.1,7.9,2c-2.2-0.1-4.4-0.7-6.4-2C26.3,28.5,24.7,18.9,29.5,11.2z"/>
	
		<radialGradient id="SVGID_3_" cx="37.9568" cy="14.8262" r="33.674" gradientTransform="matrix(0.4882 -4.198805e-03 -4.198805e-03 -0.4882 23.7336 24.8015)" gradientUnits="userSpaceOnUse">
		<stop  offset="0.2708" style="stop-color:#FFFFFF"/>
		<stop  offset="0.5087" style="stop-color:#F8F8F9"/>
		<stop  offset="0.736" style="stop-color:#EBEBED"/>
		<stop  offset="0.9585" style="stop-color:#D7D9DE"/>
		<stop  offset="1" style="stop-color:#D2D5DB"/>
	</radialGradient>
	<path class="st3" d="M52.8,1.4c-1.7-1.1-3.7-1.5-5.9-1.3c-6.3,0.4-13.8,5.5-17.4,11.2c-4.8,7.6-3.3,17.3,3.5,21.5
		c2,1.2,4.2,1.9,6.4,2c5.4,0.2,11.1-2.7,14.5-8.1C58.7,19,59.5,5.6,52.8,1.4z"/>
	<path class="st4" d="M71.2,18.4l1.2,0l0,1l-1.2,0L71.2,18.4z"/>
	<path class="st4" d="M75.5,18.9l1,0.1c-0.1,0.2-0.1,0.4-0.3,0.5c-0.1,0.1-0.3,0.3-0.5,0.3C75.6,19.9,75.3,20,75,20
		c-0.3,0-0.6,0-0.8-0.1c-0.2-0.1-0.4-0.1-0.5-0.3c-0.1-0.1-0.3-0.3-0.3-0.4c-0.1-0.2-0.1-0.4-0.1-0.6c0-0.3,0-0.5,0.1-0.7
		c0.1-0.1,0.2-0.3,0.3-0.4c0.1-0.1,0.3-0.2,0.4-0.2c0.2-0.1,0.5-0.1,0.8-0.1c0.5,0,0.8,0.1,1.1,0.2c0.2,0.2,0.4,0.4,0.5,0.7l-1,0.1
		c0-0.1-0.1-0.2-0.2-0.3c-0.1-0.1-0.2-0.1-0.3-0.1c-0.2,0-0.3,0.1-0.4,0.2c-0.1,0.1-0.2,0.3-0.2,0.6c0,0.2,0.1,0.4,0.2,0.5
		c0.1,0.1,0.3,0.2,0.4,0.2c0.1,0,0.3,0,0.4-0.1C75.4,19.1,75.4,19,75.5,18.9z"/>
	<path class="st4" d="M78.1,18c0.1-0.1,0.2-0.2,0.4-0.2c0.1,0,0.3,0.1,0.4,0.2c0.1,0.1,0.2,0.3,0.2,0.5c0,0.2,0,0.4-0.1,0.5
		c-0.1,0.1-0.2,0.2-0.4,0.2c-0.2,0-0.3-0.1-0.4-0.2C78,19,78,18.8,78,18.6C77.9,18.3,78,18.2,78.1,18z M77.4,19.6
		c0.3,0.2,0.7,0.3,1.1,0.3c0.5,0,0.9-0.1,1.2-0.4c0.3-0.3,0.4-0.6,0.4-1c0-0.4-0.1-0.7-0.4-0.9c-0.3-0.3-0.7-0.5-1.3-0.5
		c-0.5,0-0.9,0.1-1.2,0.4c-0.3,0.3-0.4,0.6-0.4,1C76.9,19,77,19.4,77.4,19.6z"/>
	<path class="st4" d="M80.6,17.2l1,0l0,0.4c0.1-0.2,0.3-0.3,0.4-0.3c0.1-0.1,0.3-0.1,0.5-0.1c0.2,0,0.4,0,0.5,0.1
		c0.1,0.1,0.2,0.2,0.3,0.3c0.2-0.2,0.3-0.3,0.5-0.4c0.1-0.1,0.3-0.1,0.5-0.1c0.3,0,0.5,0.1,0.7,0.2c0.2,0.2,0.3,0.4,0.3,0.8l0,1.7
		l-1.1,0l0-1.5c0-0.1,0-0.2-0.1-0.3c-0.1-0.1-0.2-0.1-0.3-0.1c-0.1,0-0.2,0-0.3,0.1c-0.1,0.1-0.1,0.2-0.1,0.4l0,1.4l-1.1,0l0-1.5
		c0-0.1,0-0.2,0-0.2c0-0.1-0.1-0.1-0.1-0.2c-0.1,0-0.1-0.1-0.2-0.1c-0.1,0-0.2,0-0.3,0.1c-0.1,0.1-0.1,0.2-0.1,0.4l0,1.4l-1.1,0
		L80.6,17.2z"/>
	<path class="st4" d="M31.2,13.9l-0.3,0.8c0.3-0.3,0.6-0.6,0.9-0.7c0.3-0.2,0.7-0.2,1-0.2c0.5,0,0.8,0.1,1,0.3
		c0.2,0.2,0.3,0.5,0.3,0.8c0,0.3-0.1,0.9-0.3,1.6l-1.6,6.1l-2.7,0l1.6-6c0.2-0.6,0.2-1,0.2-1.1c0-0.1-0.1-0.2-0.3-0.2
		c-0.2,0-0.3,0.1-0.4,0.2c-0.1,0.2-0.2,0.6-0.4,1.2l-1.5,5.9l-2.7,0l2.3-8.7L31.2,13.9z"/>
	<path class="st4" d="M40.3,18.3l-3.4,0l-0.5,1.9c-0.1,0.4-0.1,0.6-0.1,0.8c0,0.1,0.1,0.2,0.3,0.2c0.2,0,0.3-0.1,0.5-0.2
		c0.1-0.2,0.2-0.4,0.3-0.9l0.3-1.2l2.5,0L40,19.5c-0.1,0.5-0.3,1-0.4,1.2c-0.1,0.3-0.4,0.6-0.7,0.9c-0.3,0.3-0.7,0.6-1.1,0.7
		c-0.4,0.2-0.9,0.3-1.5,0.3c-0.6,0-1-0.1-1.4-0.2c-0.4-0.2-0.7-0.4-0.8-0.7c-0.2-0.3-0.2-0.6-0.3-0.9c0-0.3,0.1-0.8,0.2-1.5l0.7-2.5
		c0.2-0.8,0.5-1.4,0.8-1.8c0.3-0.4,0.7-0.8,1.3-1c0.5-0.2,1.1-0.4,1.7-0.4c0.7,0,1.3,0.1,1.7,0.4c0.4,0.3,0.7,0.7,0.7,1.1
		c0.1,0.5,0,1.1-0.2,2L40.3,18.3z M38,16.9l0.2-0.6c0.1-0.5,0.2-0.7,0.2-0.9c0-0.1-0.1-0.2-0.2-0.2c-0.2,0-0.3,0.1-0.4,0.2
		c-0.1,0.1-0.2,0.4-0.3,0.9l-0.2,0.6L38,16.9z"/>
	<path class="st4" d="M50.9,13.7l-3.3,8.7l-2.8,0c0.1-1.1,0.3-2.5,0.5-4.2c-0.3,0.8-0.6,1.6-0.9,2.3l-0.8,1.9l-2.8,0l1.1-8.7l2.3,0
		c0,0.2-0.3,1.9-0.7,5c0.1-0.3,0.8-2,1.9-5l2.2,0l-0.7,5c0.5-1.5,1.1-3.1,1.9-5L50.9,13.7z"/>
	<path class="st4" d="M56.4,18.2l-3.4,0l-0.5,1.9c-0.1,0.4-0.1,0.7-0.1,0.8c0,0.1,0.1,0.2,0.3,0.2c0.2,0,0.3-0.1,0.5-0.2
		c0.1-0.2,0.2-0.4,0.3-0.9l0.3-1.2l2.5,0l-0.2,0.6c-0.1,0.5-0.3,1-0.4,1.2c-0.1,0.3-0.4,0.6-0.7,0.9c-0.3,0.3-0.7,0.6-1.1,0.7
		c-0.4,0.2-0.9,0.3-1.5,0.3c-0.6,0-1-0.1-1.4-0.2c-0.4-0.2-0.7-0.4-0.8-0.7c-0.2-0.3-0.2-0.6-0.3-0.9c0-0.3,0.1-0.8,0.2-1.5l0.7-2.5
		c0.2-0.8,0.5-1.4,0.8-1.8c0.3-0.4,0.7-0.8,1.3-1c0.5-0.2,1.1-0.4,1.7-0.4c0.7,0,1.3,0.1,1.7,0.4c0.4,0.3,0.7,0.6,0.7,1.1
		c0.1,0.5,0,1.1-0.2,2L56.4,18.2z M54.1,16.8l0.2-0.6c0.1-0.5,0.2-0.7,0.2-0.9c0-0.1-0.1-0.2-0.2-0.2c-0.2,0-0.3,0.1-0.4,0.2
		c-0.1,0.1-0.2,0.4-0.3,0.9l-0.2,0.6L54.1,16.8z"/>
	<path class="st4" d="M64.4,13.6l-1.7,6.7c-0.2,0.9-0.4,1.5-0.5,1.8c-0.1,0.3-0.3,0.5-0.7,0.8c-0.3,0.3-0.7,0.5-1.2,0.7
		c-0.5,0.2-1.1,0.2-1.8,0.3c-0.8,0-1.5-0.1-1.9-0.4c-0.4-0.3-0.6-0.8-0.4-1.7l2.6,0c-0.1,0.4,0,0.6,0.3,0.6c0.2,0,0.3-0.1,0.4-0.2
		c0.1-0.1,0.2-0.4,0.3-0.8l0.2-0.7c-0.3,0.2-0.6,0.4-0.8,0.5c-0.3,0.1-0.6,0.2-0.8,0.2c-0.5,0-0.8-0.1-1.1-0.3
		c-0.3-0.2-0.4-0.4-0.4-0.8c0-0.3,0-0.8,0.2-1.3l0.8-3.2c0.2-0.8,0.5-1.4,0.9-1.8c0.4-0.4,0.9-0.6,1.5-0.6c0.3,0,0.6,0.1,0.9,0.2
		c0.2,0.1,0.4,0.3,0.6,0.6l0.4-0.7L64.4,13.6z M61.2,15.9c0.1-0.4,0.1-0.7,0.1-0.8c0-0.1-0.1-0.2-0.3-0.2c-0.2,0-0.3,0.1-0.4,0.2
		c-0.1,0.1-0.2,0.4-0.3,0.7l-0.8,2.9c-0.1,0.4-0.1,0.6-0.1,0.8c0,0.1,0.1,0.2,0.3,0.2c0.2,0,0.3-0.1,0.4-0.2c0.1-0.1,0.2-0.5,0.3-1
		L61.2,15.9z"/>
	<path class="st4" d="M71.4,13.5l-1.7,6.7c-0.2,0.9-0.4,1.5-0.5,1.8c-0.1,0.3-0.3,0.5-0.7,0.8c-0.3,0.3-0.7,0.5-1.2,0.7
		c-0.5,0.2-1.1,0.2-1.8,0.2c-0.8,0-1.5-0.1-1.9-0.4c-0.4-0.3-0.6-0.8-0.4-1.7l2.6,0c-0.1,0.4,0,0.6,0.3,0.6c0.2,0,0.4-0.1,0.4-0.2
		c0.1-0.1,0.2-0.4,0.3-0.8l0.2-0.7c-0.3,0.2-0.6,0.4-0.8,0.5c-0.3,0.1-0.6,0.2-0.8,0.2c-0.5,0-0.8-0.1-1.1-0.3
		c-0.3-0.2-0.4-0.4-0.4-0.8c0-0.3,0-0.8,0.2-1.3l0.8-3.2c0.2-0.8,0.5-1.4,0.9-1.8c0.4-0.4,0.9-0.6,1.5-0.6c0.3,0,0.6,0.1,0.9,0.2
		c0.2,0.1,0.4,0.3,0.6,0.6l0.4-0.7L71.4,13.5z M68.2,15.9c0.1-0.4,0.1-0.7,0.1-0.8c0-0.1-0.1-0.2-0.3-0.2c-0.2,0-0.3,0.1-0.4,0.2
		c-0.1,0.1-0.2,0.4-0.3,0.7l-0.8,2.9c-0.1,0.4-0.1,0.6-0.1,0.8c0,0.1,0.1,0.2,0.3,0.2c0.2,0,0.3-0.1,0.4-0.2c0.1-0.1,0.2-0.5,0.3-1
		L68.2,15.9z"/>
	<g>
		<g>
			<path class="st4" d="M85.2,16.9V16h0.4c0.1,0,0.1,0,0.2,0s0.1,0,0.1,0.1c0,0,0,0.1,0,0.1c0,0.1,0,0.1-0.1,0.2
				c0,0-0.1,0.1-0.2,0.1c0,0,0.1,0,0.1,0c0,0,0.1,0.1,0.1,0.1l0.2,0.2h-0.1l-0.1-0.2c0-0.1-0.1-0.1-0.1-0.1c0,0,0,0-0.1-0.1
				c0,0,0,0-0.1,0c0,0,0,0-0.1,0h-0.1v0.4L85.2,16.9L85.2,16.9z M85.4,16.4h0.3c0.1,0,0.1,0,0.1,0c0,0,0.1,0,0.1-0.1
				c0,0,0-0.1,0-0.1c0,0,0-0.1,0-0.1c0,0-0.1,0-0.1,0h-0.3V16.4z"/>
		</g>
		<circle class="st5" cx="85.6" cy="16.5" r="0.6"/>
	</g>
</g>
</svg>
