<?xml version="1.0" encoding="utf-8"?>
<!-- Generator: Adobe Illustrator 21.0.2, SVG Export Plug-In . SVG Version: 6.00 Build 0)  -->
<svg version="1.1" id="Layer_1" xmlns="http://www.w3.org/2000/svg" xmlns:xlink="http://www.w3.org/1999/xlink" x="0px" y="0px"
	 viewBox="0 0 124 20" style="enable-background:new 0 0 124 20;" xml:space="preserve">
<style type="text/css">
	.st0{fill:#BE2429;}
	.st1{fill:#FFFFFF;}
</style>
<g>
	<g>
		<path d="M57.5,0.2c0,0.8,0,1.6,0,2.4c0,2.3,0,4.5,0,6.8c0,0.1,0,0.2,0,0.5c0.1-0.1,0.2-0.2,0.3-0.3c1.5-1.5,3-3,4.5-4.5
			c0.2-0.2,0.3-0.2,0.6-0.2c1.4,0,2.9,0,4.3,0C65,7,62.8,9.2,60.7,11.4c2.5,2.5,5,5,7.5,7.5c-0.2,0-0.3,0-0.3,0c-1.4,0-2.7,0-4.1,0
			c-0.2,0-0.4-0.1-0.5-0.2c-1.8-1.8-3.6-3.6-5.4-5.4c-0.1-0.1-0.1-0.2-0.2-0.3c0,0-0.1,0.1-0.1,0.1c0,1.9,0,3.9,0,5.8
			c-1.1,0-2.2,0-3.3,0c0-0.1,0-0.2,0-0.3c0-6,0-12.1,0-18.1c0-0.1,0-0.2,0-0.2C55.3,0.2,56.4,0.2,57.5,0.2z"/>
		<path d="M124,18.9c-1.1,0-2.2,0-3.3,0c0-0.1,0-0.3,0-0.4c0-2.6,0-5.2,0-7.8c0-1.2-0.6-2.1-1.7-2.6c-1-0.5-2.1-0.3-2.9,0.5
			c-0.6,0.5-0.9,1.2-0.9,1.9c0,2.7,0,5.3,0,8c0,0.1,0,0.3,0,0.4c-1.1,0-2.2,0-3.3,0c0-4.7,0-9.3,0-14c0.1,0,0.2,0,0.3,0
			c0.9,0,1.8,0,2.7,0c0.2,0,0.4-0.1,0.3,0.3c1-0.5,1.9-0.7,2.9-0.7c3,0,5.5,2.2,6,5.2c0,0.1,0,0.1,0.1,0.2
			C124,12.8,124,15.9,124,18.9z"/>
		<path d="M23,1.4c2,0,4-0.1,6,0c2.8,0.1,5.3,2.6,5.5,5.4c0.2,2.2-0.6,4-2.3,5.4c0,0-0.1,0.1-0.1,0.1c0,0,0,0,0,0.1
			c0.8,1.1,1.6,2.1,2.4,3.2c0.8,1.1,1.6,2.2,2.5,3.3c-0.1,0-0.2,0-0.3,0c-1.2,0-2.4,0-3.6,0c-0.2,0-0.3-0.1-0.5-0.2
			c-1.2-1.7-2.5-3.3-3.7-5c-0.1-0.1-0.3-0.2-0.4-0.2c-0.7,0-1.3,0-2,0c0,1.8,0,3.6,0,5.4c-1.1,0-2.2,0-3.4,0C23,13,23,7.2,23,1.4z
			 M26.4,10.1c0.8,0,1.5,0,2.2,0c1.4,0,2.5-1.1,2.6-2.5c0.1-1.3-0.8-2.6-2.1-2.8c-0.9-0.2-1.8-0.1-2.7-0.1
			C26.4,6.5,26.4,8.3,26.4,10.1z"/>
		<path d="M50.4,18.9c-1.1,0-2.2,0-3.3,0c0-0.2,0-0.3,0-0.5c-0.1,0-0.1,0-0.1,0c-3,1.8-6.5,0.7-8.4-2.2c-2-3-1.6-7,0.7-9.7
			c2-2.2,5-2.7,7.5-1.3c0.1,0,0.1,0.1,0.2,0.1c0-0.2,0-0.3,0-0.5c1.1,0,2.2,0,3.3,0C50.4,9.5,50.4,14.2,50.4,18.9z M47.1,11.9
			c0-1-0.3-1.9-0.9-2.8c-1.2-1.6-3.1-1.7-4.5-0.3c-1.4,1.5-1.5,4.5,0,6c1.3,1.4,3.2,1.4,4.4-0.1C46.8,13.9,47.1,12.9,47.1,11.9z"/>
		<path d="M109.1,12.9c-3.1,0-6.2,0-9.3,0c-0.1,0.9,0.9,2.2,1.9,2.7c1.1,0.5,2.6,0.6,4.2-1.2c1,0.6,1.9,1.1,2.9,1.7
			c-0.4,0.4-0.7,0.9-1.1,1.2c-2.6,2.4-6.3,2.5-9.1,0.2c-1.8-1.6-2.8-3.6-2.7-6c0.1-2.6,1.1-4.8,3.3-6.2c2.7-1.7,6.2-1,8.3,1.7
			C108.9,8.8,109.3,10.7,109.1,12.9z M99.8,9.8c1.8,0,3.7,0,5.5,0c-0.1-1.2-1.2-2.2-2.5-2.2C101.4,7.5,100,8.6,99.8,9.8z"/>
		<path d="M77.5,4.9c1.1,0,2.2,0,3.3,0c0,4.7,0,9.3,0,14c-0.3,0-0.6,0-0.8,0c-0.7,0-1.4,0-2.2,0c-0.1,0-0.3-0.1-0.4-0.2
			c-0.7,0.2-1.4,0.4-2.2,0.5c-2.5,0.3-5-1.1-6.1-3.4c-0.4-0.8-0.6-1.7-0.6-2.7c0-2.6,0-5.2,0-7.8c0-0.1,0-0.2,0-0.4
			c1.1,0,2.2,0,3.4,0c0,0.1,0,0.2,0,0.4c0,2.6,0,5.2,0,7.8c0,1.6,1.2,2.8,2.8,2.8c1.6,0,2.8-1.2,2.8-2.9c0-2.6,0-5.2,0-7.8
			C77.5,5.2,77.5,5,77.5,4.9z"/>
		<path d="M95.2,15.9c-0.7,1.8-1.9,3-3.8,3.3c-2.6,0.4-5-1.2-5.6-3.7c-0.1-0.4-0.1-0.8-0.1-1.2c0-1.9,0-3.7,0-5.6c0-0.1,0-0.3,0-0.4
			c-0.8,0-1.6,0-2.3,0c0-1.1,0-2.2,0-3.4c0.8,0,1.5,0,2.3,0c0-1.2,0-2.3,0-3.5c1.1,0,2.2,0,3.3,0c0,1.2,0,2.3,0,3.5
			c0.9,0,1.7,0,2.5,0c0.8,0,1.6,0,2.4,0c0,1.1,0,2.2,0,3.4c-1.6,0-3.2,0-4.9,0c0,0.1,0,0.2,0,0.3c0,1.8,0,3.7,0,5.5
			c0,0.2,0,0.5,0.1,0.7c0.2,0.6,0.6,1,1.2,1.1c0.6,0.1,1.1-0.2,1.4-0.7c0.1-0.1,0.1-0.2,0.2-0.3C93,15.3,94.1,15.6,95.2,15.9z"/>
	</g>
	<g>
		<path id="path4047" class="st0" d="M19.2,10.2c0,5.3-4.3,9.6-9.6,9.6c-5.3,0-9.6-4.3-9.6-9.6c0-5.3,4.3-9.6,9.6-9.6
			C14.9,0.6,19.2,4.9,19.2,10.2"/>
		<path id="path4049" class="st1" d="M11.5,11.5c1.1-0.6,1.7-1.8,1.7-3c0-1.9-1.6-3.5-3.5-3.5H6.4v10.3h2c0,0,0-3.1,0-3.3
			c0.2,0,0.9,0,1,0c0.1,0.1,2.4,3.3,2.4,3.3h2.4C14.2,15.3,11.7,11.8,11.5,11.5z M8.4,7c0.2,0,1.4,0,1.4,0c0.8,0,1.5,0.7,1.5,1.5
			c0,0.8-0.7,1.5-1.5,1.5c0,0-1.1,0-1.4,0C8.4,9.8,8.4,7.3,8.4,7"/>
	</g>
</g>
</svg>
