<?xml version="1.0" encoding="utf-8"?>
<!-- Generator: Adobe Illustrator 21.0.2, SVG Export Plug-In . SVG Version: 6.00 Build 0)  -->
<svg version="1.1" id="Layer_1" xmlns="http://www.w3.org/2000/svg" xmlns:xlink="http://www.w3.org/1999/xlink" x="0px" y="0px"
	 viewBox="0 0 94 25" style="enable-background:new 0 0 94 25;" xml:space="preserve">
<style type="text/css">
	.st0{fill:#25438A;}
</style>
<g>
	<g>
		<path class="st0" d="M1.8,16.5c0.3,4.4,3.6,7,7.9,7c3.1,0,7.6-0.9,7.6-5.1c0-4-4.1-4.6-8.2-5.5C4.9,12.1,0.8,11,0.8,6.1
			C0.8,1.4,5.4,0,9.5,0c5.1,0,8.8,2.2,8.8,7.6h-1.8c0-4.3-3.1-6.1-7.1-6.1c-3.3,0-6.9,1.2-6.9,4.6c0,3.8,4.1,4.4,7.9,5.3
			c4.7,0.9,8.5,2,8.5,7c0,5.2-5.2,6.6-9.3,6.6c-5.4,0-9.5-2.9-9.7-8.5H1.8z"/>
		<path class="st0" d="M22,12.7c-0.1,5.6,2.9,10.7,8.8,10.7c4.5,0,7.7-2.7,8.6-7.1h1.8c-0.9,5.6-4.6,8.6-10.3,8.6
			c-7,0-10.6-5.5-10.5-12.1C20.1,6.4,23.6,0,30.8,0c7.5,0,10.8,5.9,10.5,12.7H22z M39.5,11.2c-0.1-5-3.3-9.7-8.7-9.7
			c-5.3,0-8.4,4.9-8.8,9.7H39.5z"/>
		<path class="st0" d="M61,24.4h-1.8v-4.7h-0.1C58,22.5,54.8,25,50.3,25c-4.5,0-8-1.7-8-6.7c0-5.6,4.8-6.7,8.8-7.1
			c7.9-0.6,8.2-1.1,8.2-5c0-1.1-1.2-4.7-6.6-4.7c-4.3,0-7.1,2.2-7.3,6.4h-1.8C43.8,2.6,47,0,52.6,0C56.8,0,61,1.3,61,6.2L61,24.4
			L61,24.4z M59.2,10.9c-1.4,1.6-5.2,1.4-8.6,1.9c-4.2,0.5-6.6,2-6.6,5.5c0,2.9,2.1,5.2,6.3,5.2c8,0,8.9-6.9,8.9-8.1L59.2,10.9
			L59.2,10.9z"/>
		<path class="st0" d="M66.4,5.9h0.1c0.9-3.1,4.8-5.6,9.2-5.4v1.8c-1.9-0.2-4.5,0.2-6.6,2.3c-1.8,1.8-2.5,3.3-2.7,6.9v13.1h-1.8V0.6
			h1.8L66.4,5.9L66.4,5.9z"/>
		<path class="st0" d="M76.8,16.5c0.3,4.4,3.6,7,7.9,7c3.1,0,7.6-0.9,7.6-5.1c0-4-4.1-4.6-8.2-5.5c-4.1-0.8-8.2-1.9-8.2-6.8
			c0-4.7,4.6-6.1,8.6-6.1c5.1,0,8.8,2.2,8.8,7.6h-1.8c0-4.3-3.1-6.1-7.1-6.1c-3.3,0-6.9,1.2-6.9,4.6c0,3.8,4.1,4.4,7.9,5.3
			c4.7,0.9,8.5,2,8.5,7c0,5.2-5.2,6.6-9.3,6.6c-5.4,0-9.5-2.9-9.7-8.5L76.8,16.5L76.8,16.5z"/>
	</g>
</g>
</svg>
