<?xml version="1.0" encoding="utf-8"?>
<!-- Generator: Adobe Illustrator 21.0.2, SVG Export Plug-In . SVG Version: 6.00 Build 0)  -->
<svg version="1.1" id="Layer_1" xmlns="http://www.w3.org/2000/svg" xmlns:xlink="http://www.w3.org/1999/xlink" x="0px" y="0px"
	 viewBox="0 0 88 38.1" style="enable-background:new 0 0 88 38.1;" xml:space="preserve">
<style type="text/css">
	.st0{fill:#93C24C;}
</style>
<g>
	<g>
		<path class="st0" d="M25.5,23.9c0.5,0.3,1.5,0.7,2.5,0.7c0.8,0,1.3-0.5,1.3-1c0-0.5-0.3-0.9-1.2-1.4c-1.1-0.7-2-1.6-2-2.8
			c0-2.1,1.8-3.6,4.4-3.6c1.1,0,2,0.2,2.5,0.5l-0.7,2.1c-0.4-0.2-1.1-0.4-1.9-0.4c-0.8,0-1.4,0.4-1.4,1c0,0.5,0.4,0.8,1.1,1.2
			c1.2,0.7,2.1,1.6,2.1,2.9c0,2.4-1.9,3.7-4.6,3.7c-1.2,0-2.4-0.3-3-0.7L25.5,23.9z"/>
		<path class="st0" d="M33,26.6l2.9-15.3h3l-1.1,6l0,0c0.8-1,1.8-1.6,3.2-1.6c1.6,0,2.5,1,2.5,2.7c0,0.5-0.1,1.3-0.2,2L42,26.6h-3
			l1.1-6c0.1-0.4,0.1-0.9,0.1-1.3c0-0.7-0.3-1.1-0.9-1.1c-1,0-2,1.2-2.4,3.2l-1,5.2L33,26.6L33,26.6z"/>
		<path class="st0" d="M54.2,20c0,3.7-2.4,6.9-5.9,6.9c-2.7,0-4.1-1.9-4.1-4.2c0-3.6,2.4-6.9,6-6.9C52.9,15.8,54.2,17.8,54.2,20
			L54.2,20z M47.2,22.6c0,1.1,0.4,2,1.5,2c1.6,0,2.5-2.8,2.5-4.7c0-0.9-0.3-1.8-1.4-1.8C48.1,18.1,47.2,20.9,47.2,22.6L47.2,22.6z"
			/>
		<path class="st0" d="M53.5,30.9l2.1-11c0.2-1.2,0.5-2.9,0.6-4h2.6l-0.2,1.6h0c0.8-1.1,2-1.8,3.2-1.8c2.2,0,3.1,1.8,3.1,3.8
			c0,3.6-2.3,7.2-5.8,7.2c-0.7,0-1.4-0.2-1.8-0.4h-0.1l-0.8,4.4L53.5,30.9L53.5,30.9z M57.8,24.1c0.3,0.3,0.7,0.4,1.2,0.4
			c1.7,0,2.8-2.8,2.8-4.7c0-0.8-0.3-1.6-1.2-1.6c-1,0-2,1.2-2.4,3.1L57.8,24.1z"/>
		<path class="st0" d="M65,26.6L67,16h3l-2,10.6H65z M68.9,14.7c-0.8,0-1.4-0.6-1.4-1.5c0-1,0.8-1.7,1.7-1.7c0.9,0,1.5,0.6,1.5,1.5
			C70.7,14.1,69.9,14.7,68.9,14.7L68.9,14.7z"/>
		<path class="st0" d="M70.6,26.6l1.6-8.4h-1.4l0.4-2.3h1.4l0.1-0.5c0.2-1.3,0.7-2.5,1.7-3.4c0.8-0.7,1.9-1,2.9-1
			c0.7,0,1.3,0.1,1.6,0.3l-0.6,2.3c-0.3-0.1-0.6-0.2-1-0.2c-1,0-1.6,0.9-1.8,1.9L75.6,16h2.1l-0.4,2.3h-2.1l-1.6,8.4
			C73.6,26.6,70.6,26.6,70.6,26.6z"/>
		<path class="st0" d="M81.4,16l0.5,4.8c0.1,1.1,0.2,1.8,0.3,2.5h0c0.2-0.7,0.5-1.4,0.9-2.5l1.8-4.7H88l-3.7,7.9
			c-1.3,2.7-2.6,4.7-3.9,5.9c-1.1,1-2.3,1.5-2.9,1.6l-0.8-2.5c0.5-0.2,1.1-0.4,1.7-0.8c0.7-0.5,1.3-1.1,1.6-1.8
			c0.1-0.2,0.1-0.3,0.1-0.5L78.2,16L81.4,16L81.4,16z"/>
	</g>
	<g>
		<path class="st0" d="M8.1,14.6c-0.9,0-0.4-2-0.4-2.5c0.2-1.3,0.6-2.8,1.6-3.8c0.6-0.6,1.5-1,2.4-0.9c0.9,0.2,1.5,0.9,1.9,1.7
			c0.5,1,0.6,2.1,0.7,3.2c0,0.2,0.1,0.6-0.2,0.7c-0.5,0.2-0.6-0.4-0.7-0.8c-0.1-1.2-0.3-2.6-1-3.6c-0.9-1.2-2.4-0.1-3,0.9
			c-0.6,0.9-0.8,2.1-1,3.2c0,0.4-0.1,0.7-0.1,1.1C8.4,14.2,8.5,14.6,8.1,14.6L8.1,14.6z"/>
		<path class="st0" d="M14.6,9.7c0,0.2,0,0.4,0,0.6c0,0.7-0.1,1.4-0.1,2.2c-0.1,2.3-0.2,4.5-0.3,6.8c-0.2,3.7-0.4,7.5-0.6,11.2
			c-2.9-0.5-5.7-1.1-8.6-1.6c-1.7-0.3-3.3-0.6-5-0.9c-0.1,0,0.5-4.2,0.6-4.5c0.3-2.5,0.7-5,1-7.6c0.1-0.6,0.2-1.2,0.2-1.8
			c0-0.1,0-0.2,0-0.3c0.1-0.4,0.3-0.5,0.7-0.6c0.1,0,0.3-0.1,0.4-0.1c3.8-1.2,7.6-2.3,11.3-3.5C14.6,9.4,14.6,9.4,14.6,9.7z
			 M9.7,21.2c-0.4-0.5-0.9-1-1.5-1.3c-0.5-0.3-1.1-0.8-1.1-1.4c0.2-1.5,2.4-1,3.3-0.5c0.3-0.9,0.6-1.7,0.9-2.6
			c0.1-0.4-2.1-0.4-2.4-0.4c-1.1,0.1-2.2,0.5-3,1.2c-0.8,0.7-1.2,1.7-1.3,2.8C4.6,20.1,5.1,21,6,21.8c0.4,0.3,0.8,0.6,1.1,1
			c0.3,0.4,0.3,1.1-0.1,1.5c-0.8,0.7-2.3-0.3-2.9-0.9c-0.2,0.6-0.4,1.2-0.6,1.8c0,0-0.1,0.2-0.1,0.2c0.2,0.3,0.5,0.5,0.8,0.7
			c0.5,0.3,1,0.5,1.6,0.6c1.5,0.3,3.1,0,3.9-1.4C10.6,24.1,10.6,22.4,9.7,21.2C9.5,20.9,9.9,21.4,9.7,21.2L9.7,21.2z"/>
		<path class="st0" d="M18.6,11.3c0-0.3-0.7-0.2-0.9-0.2c-0.4,0-0.8-0.1-1.2-0.1c-0.1,0-0.2-0.2-0.2-0.2c-0.2-0.2-0.3-0.3-0.5-0.5
			c-0.2-0.2-0.5-0.7-0.9-0.7c-0.2,3.7-0.4,7.5-0.6,11.2c-0.2,3.2-0.3,6.5-0.5,9.7c2-0.4,4-0.9,6-1.3c0.4-0.1,0.8-0.2,1.2-0.3
			c0.1,0,0.2,0,0.1-0.1c-0.1-0.6-0.2-1.1-0.2-1.7c-0.7-4.7-1.4-9.5-2.1-14.2C18.7,12.4,18.7,11.8,18.6,11.3L18.6,11.3z"/>
		<path class="st0" d="M5.2,13.8c-0.8,0,0-2.1,0.1-2.4C5.7,10,6.4,8.7,7.5,7.7c0.6-0.6,1.5-1,2.3-1c0.9,0,1.5,0.7,1.8,1.5
			c0.4,1,0.4,2.2,0.3,3.2c0,0.2,0,0.6-0.1,0.8c-0.1,0.2-0.4,0.2-0.6,0.1C11,12.2,11,11.9,11,11.7c0.1-1.2,0.2-2.7-0.4-3.7
			C9.8,6.7,8.1,8.1,7.4,8.9C6.7,9.8,6.3,10.9,6,12c-0.1,0.4-0.2,0.8-0.3,1.2C5.6,13.5,5.6,13.8,5.2,13.8L5.2,13.8z"/>
	</g>
</g>
</svg>
