<?xml version="1.0" encoding="utf-8"?>
<!-- Generator: Adobe Illustrator 21.0.2, SVG Export Plug-In . SVG Version: 6.00 Build 0)  -->
<svg version="1.1" id="Layer_1" xmlns="http://www.w3.org/2000/svg" xmlns:xlink="http://www.w3.org/1999/xlink" x="0px" y="0px"
	 viewBox="0 0 104 25" style="enable-background:new 0 0 104 25;" xml:space="preserve">
<style type="text/css">
	.st0{fill:#007DC2;}
	.st1{fill:#FCBA30;}
</style>
<g>
	<path class="st0" d="M60.2,13.2c0-2.4-1-4.6-4.5-4.6c-1.8,0-3.2,0.5-4,1l0.6,1.9c0.7-0.4,1.9-0.8,2.9-0.8c1.8,0,2.1,1,2.1,1.6v0.2
		c-3.9,0-6.3,1.3-6.3,4.1c0,1.7,1.2,3.2,3.4,3.2c1.3,0,2.4-0.5,3.1-1.4h0.1c0,0,0.4,1.9,2.9,1.2c-0.1-0.8-0.2-1.6-0.2-2.6L60.2,13.2
		L60.2,13.2z M57.3,15.8c0,0.2,0,0.4-0.1,0.6c-0.2,0.7-1,1.4-2,1.4c-0.8,0-1.4-0.4-1.4-1.4c0-1.5,1.6-1.9,3.5-1.9L57.3,15.8
		L57.3,15.8z"/>
	<path class="st0" d="M0,5.4c0,0,2.5,10.3,2.9,12c0.5,2,1.3,2.7,3.8,2.2l1.6-6.4c0.4-1.6,0.7-2.7,0.9-4.4h0.1
		c0.2,1.6,0.4,2.8,0.8,4.4c0,0,0.6,2.9,1,4.4c0.3,1.5,1.2,2.5,3.6,2l3.8-14.2h-3l-1.3,6.2c-0.4,1.8-0.7,3.2-0.9,4.8h0
		c-0.2-1.6-0.5-3-0.9-4.7l-1.3-6.3H7.8l-1.4,6.1c-0.4,1.9-0.8,3.4-1,4.9h0c-0.2-1.5-0.6-3.4-0.9-5.2c0,0-0.8-4.4-1.2-5.9H0z"/>
	<path class="st0" d="M27,13.2c0-2.4-1-4.6-4.5-4.6c-1.8,0-3.2,0.5-4,1l0.6,1.9c0.7-0.4,1.8-0.8,2.9-0.8c1.8,0,2.1,1,2.1,1.6v0.2
		c-3.9,0-6.3,1.3-6.3,4.1c0,1.7,1.2,3.2,3.4,3.2c1.3,0,2.4-0.5,3.1-1.4h0.1c0,0,0.4,1.9,2.9,1.2C27,18.8,27,18,27,17V13.2z
		 M24.1,15.8c0,0.2,0,0.4-0.1,0.6c-0.2,0.7-1,1.4-2,1.4c-0.8,0-1.4-0.4-1.4-1.4c0-1.5,1.6-1.9,3.5-1.9L24.1,15.8L24.1,15.8z"/>
	<polygon class="st0" points="31.8,16.6 31.8,5.4 28.9,5.4 28.9,19.6 31.8,19.6 	"/>
	<path class="st0" d="M69.6,5.4c0,1.4,0,10.5,0,10.5c0,1.4,0.3,2.5,0.9,3.1c0.5,0.6,1.4,0.9,2.3,0.9c0.9,0,1.7-0.2,2.1-0.3l0-2.3
		c-0.3,0.1-0.6,0.1-1.1,0.1c-1,0-1.3-0.6-1.3-1.9v-4H75V8.7h-2.5V5.4H69.6z"/>
	<path class="st0" d="M62.1,8.9v10.7h3v-5.5c0-0.3,0-0.6,0.1-0.8c0.2-1.2,1.1-1.9,2.4-1.9c0.3,0,0.6,0,0.9,0.1V8.7
		c-0.2,0-0.4-0.1-0.7-0.1c-1.1,0-2.4,0.7-2.9,2.2h-0.1v-2H62.1z"/>
	<path class="st0" d="M33.8,8.9v10.7h2.9v-6.3c0-0.3,0-0.6,0.1-0.9c0.2-0.6,0.8-1.4,1.8-1.4c1.2,0,1.7,1,1.7,2.4v6.1h2.9v-6.3
		c0-0.3,0-0.6,0.1-0.9c0.2-0.7,0.9-1.3,1.7-1.3c1.2,0,1.8,1,1.8,2.7c0,0,0,4.5,0,5.9h2.9v-6.3c0-3.3-1.7-4.6-3.6-4.6
		c-0.8,0-1.5,0.2-2.1,0.6c-0.5,0.3-1,0.7-1.4,1.3h0c-0.5-1.1-1.6-1.9-3-1.9c-1.8,0-2.6,0.9-3.1,1.7h0V8.9H33.8z"/>
	<path class="st1" d="M90.6,8.5c0.6,0,1-0.3,1.1-0.7l0.6-6.4c0-0.6-0.8-1.2-1.7-1.2c-0.9,0-1.7,0.5-1.7,1.2l0.6,6.4
		C89.5,8.2,90,8.5,90.6,8.5L90.6,8.5z"/>
	<path class="st1" d="M87.1,10.5c0.3-0.5,0.2-1.1-0.1-1.3l-5.3-3.7c-0.6-0.3-1.4,0.1-1.9,0.9c-0.4,0.8-0.4,1.7,0.2,2l5.8,2.7
		C86.3,11.2,86.8,11,87.1,10.5L87.1,10.5z"/>
	<path class="st1" d="M94.1,10.5c0.3,0.5,0.8,0.7,1.1,0.6l5.8-2.7c0.6-0.3,0.6-1.2,0.2-2c-0.5-0.8-1.3-1.2-1.9-0.9l-5.3,3.7
		C93.8,9.4,93.7,10,94.1,10.5L94.1,10.5z"/>
	<path class="st1" d="M90.6,16.5c0.6,0,1,0.3,1.1,0.7l0.6,6.4c0,0.6-0.8,1.2-1.7,1.2c-0.9,0-1.7-0.5-1.7-1.2l0.6-6.4
		C89.5,16.8,90,16.5,90.6,16.5L90.6,16.5z"/>
	<path class="st1" d="M94.1,14.5c0.3-0.5,0.8-0.8,1.1-0.6l5.8,2.7c0.6,0.3,0.6,1.2,0.2,2c-0.5,0.8-1.3,1.2-1.9,0.9l-5.3-3.7
		C93.8,15.6,93.7,15,94.1,14.5L94.1,14.5z"/>
	<path class="st1" d="M87.1,14.5c0.3,0.5,0.2,1.1-0.1,1.3l-5.3,3.7c-0.6,0.3-1.4-0.1-1.9-0.9c-0.4-0.8-0.4-1.7,0.2-2l5.8-2.7
		C86.3,13.7,86.8,14,87.1,14.5L87.1,14.5z"/>
	<path class="st1" d="M103.1,18.2c0.5,0,0.9,0.4,0.9,0.9c0,0.5-0.4,0.9-0.9,0.9s-0.9-0.4-0.9-0.9C102.1,18.6,102.5,18.2,103.1,18.2
		L103.1,18.2z M103.1,18.3c-0.4,0-0.7,0.3-0.7,0.7c0,0.4,0.3,0.8,0.7,0.8c0.4,0,0.7-0.3,0.7-0.7C103.8,18.7,103.5,18.3,103.1,18.3
		L103.1,18.3z M102.9,19.6h-0.2v-1c0.1,0,0.2,0,0.3,0c0.1,0,0.2,0,0.3,0.1c0.1,0,0.1,0.1,0.1,0.2c0,0.1-0.1,0.2-0.2,0.2v0
		c0.1,0,0.1,0.1,0.2,0.2c0,0.2,0.1,0.2,0.1,0.2h-0.2c0,0-0.1-0.1-0.1-0.2c0-0.1-0.1-0.1-0.2-0.1h-0.1L102.9,19.6L102.9,19.6z
		 M102.9,19.1h0.1c0.1,0,0.2,0,0.2-0.2c0-0.1-0.1-0.2-0.2-0.2c-0.1,0-0.1,0-0.1,0V19.1z"/>
</g>
</svg>
